<?xml version="1.0" encoding="UTF-8"?>
<svg version="1.1" xmlns="http://www.w3.org/2000/svg" width="800" height="312">
<path d="M0 0 C7.12678227 6.65166345 11.22962477 16.07941655 12.8125 25.625 C12.4058126 32.19794773 8.00843659 37.91251337 4.73535156 43.44604492 C1.86127494 48.35112675 -1.1875 53.78411986 -1.1875 59.625 C-0.3625 59.56699219 0.4625 59.50898437 1.3125 59.44921875 C15.21326648 58.90622006 28.21142375 62.21301785 38.8125 71.625 C42.98421218 75.63089098 45.20520996 78.99948487 46.8125 84.625 C47.4725 84.955 48.1325 85.285 48.8125 85.625 C49.48046875 88.53125 49.48046875 88.53125 50 92.125 C50.17917969 93.3109375 50.35835937 94.496875 50.54296875 95.71875 C50.63191406 96.6778125 50.72085938 97.636875 50.8125 98.625 C49.8125 99.625 49.8125 99.625 47.96484375 99.72265625 C45.9140625 99.69010417 43.86328125 99.65755208 41.8125 99.625 C41.8125 99.295 41.8125 98.965 41.8125 98.625 C33.5625 98.295 25.3125 97.965 16.8125 97.625 C15.8225 94.655 14.8325 91.685 13.8125 88.625 C8.67644 83.48894 2.75139623 83.21095124 -4.1875 82.625 C-4.5175 83.285 -4.8475 83.945 -5.1875 84.625 C-6.610625 84.99625 -6.610625 84.99625 -8.0625 85.375 C-11.38498004 86.37465496 -11.38498004 86.37465496 -13.125 89.375 C-14.34729434 93.11378268 -14.4779516 94.91495164 -13.1875 98.625 C-9.68083485 101.94279629 -6.64032473 103.35945285 -2 104.5625 C-0.76894531 104.89507812 0.46210937 105.22765625 1.73046875 105.5703125 C3.81642562 106.11385443 5.90434458 106.64814097 7.99462891 107.17480469 C37.27228614 114.57864314 37.27228614 114.57864314 45.8125 127.625 C50.18547537 135.22148293 51.26716246 143.38774226 49.26953125 151.953125 C45.91310896 161.67006024 39.21252069 169.05361737 30.25 173.875 C14.97876214 180.96115752 -4.49285956 182.35670301 -20.5390625 176.8125 C-32.72332494 171.78806188 -42.74740124 163.7865431 -48.1875 151.625 C-49.67637044 147.4616771 -49.1875 144.447406 -49.1875 139.625 C-39.2875 139.625 -29.3875 139.625 -19.1875 139.625 C-18.5275 141.605 -17.8675 143.585 -17.1875 145.625 C-16.5275 146.285 -15.8675 146.945 -15.1875 147.625 C-14.94 148.264375 -14.6925 148.90375 -14.4375 149.5625 C-12.27425666 153.13185151 -8.69328095 154.18911604 -4.8125 155.3125 C1.55944416 156.07106478 8.81629801 156.26233366 14.8125 153.625 C17.53280172 149.6524959 17.59230365 145.26097556 16.8125 140.625 C11.06974199 133.03635548 -4.32793018 131.24925447 -13.1875 129.625 C-14.5075 129.625 -15.8275 129.625 -17.1875 129.625 C-17.1875 128.965 -17.1875 128.305 -17.1875 127.625 C-17.73277344 127.47804687 -18.27804687 127.33109375 -18.83984375 127.1796875 C-29.13616327 124.11719246 -36.86782175 118.33918463 -43.1875 109.625 C-47.08263572 101.49827166 -46.94174299 92.09392898 -44.1875 83.625 C-43.23870365 82.01204621 -42.2879241 80.39919869 -41.27734375 78.82421875 C-39.68159969 75.60413306 -38.79589774 72.20841974 -37.875 68.75 C-37.69146973 68.07042236 -37.50793945 67.39084473 -37.31884766 66.69067383 C-36.88991389 65.0145294 -36.53209532 63.32049355 -36.1875 61.625 C-36.5175 61.295 -36.8475 60.965 -37.1875 60.625 C-38.13625 61.45 -39.085 62.275 -40.0625 63.125 C-42.9375 65.625 -42.9375 65.625 -45.1875 65.625 C-45.43628906 66.19734375 -45.68507813 66.7696875 -45.94140625 67.359375 C-47.37202634 69.96050243 -49.06150362 71.74060591 -51.125 73.875 C-61.34297718 85.06065079 -69.25242958 98.20830607 -76.1875 111.625 C-76.51234375 112.24246094 -76.8371875 112.85992187 -77.171875 113.49609375 C-90.05619846 138.47267161 -92.8923059 172.53588084 -85.1875 199.625 C-84.99994141 200.29370117 -84.81238281 200.96240234 -84.61914062 201.65136719 C-82.48001661 209.1729149 -80.01179958 216.53046224 -76.88671875 223.70703125 C-76.1875 225.625 -76.1875 225.625 -76.1875 228.625 C-79.05569183 230.05909591 -81.00359862 229.95463656 -84.1875 229.625 C-86.92578125 227.76171875 -86.92578125 227.76171875 -89.5 225.3125 C-90.36238281 224.51199219 -91.22476562 223.71148437 -92.11328125 222.88671875 C-94.1875 220.625 -94.1875 220.625 -95.1875 217.625 C-95.8475 217.625 -96.5075 217.625 -97.1875 217.625 C-108.40479115 196.57812382 -113.3753802 175.06532257 -113.37280273 151.3190918 C-113.37497119 149.09208525 -113.39312225 146.86558999 -113.41210938 144.63867188 C-113.46217277 132.23430505 -112.67009121 119.91796552 -108.9375 108 C-108.72134033 107.29254639 -108.50518066 106.58509277 -108.2824707 105.85620117 C-101.31669527 83.8364041 -88.55052381 66.59872303 -72.36450195 50.54125977 C-70.72035214 48.9080494 -69.08744385 47.26412086 -67.45507812 45.61914062 C-66.40949657 44.57487722 -65.36329665 43.53123251 -64.31640625 42.48828125 C-63.82999161 41.99781815 -63.34357697 41.50735504 -62.84242249 41.00202942 C-59.41754994 37.625 -59.41754994 37.625 -57.1875 37.625 C-56.878125 36.985625 -56.56875 36.34625 -56.25 35.6875 C-55.1875 33.625 -55.1875 33.625 -54.1875 32.625 C-54.90035156 32.62242188 -55.61320313 32.61984375 -56.34765625 32.6171875 C-62.23309655 32.37955196 -66.41609886 31.8836474 -70.68359375 27.63671875 C-74.67562843 22.2967243 -77.59006218 16.37096622 -77.1875 9.625 C-69.75904443 7.82965265 -62.27289487 6.6699856 -54.71679688 5.56503296 C-42.93361019 3.84192218 -31.17975499 2.03759783 -19.48193359 -0.20654297 C-6.16988453 -2.66151882 -6.16988453 -2.66151882 0 0 Z " fill="#FDD703" transform="translate(596.1875,50.375)"/>
<path d="M0 0 C1.3125 0.9375 2.625 1.875 3.9375 2.8125 C4.9275 3.3075 4.9275 3.3075 5.9375 3.8125 C6.6212045 5.13717746 7.28714186 6.47113633 7.9375 7.8125 C8.9275 8.8025 8.9275 8.8025 9.9375 9.8125 C10.85402797 11.45669563 11.72459066 13.12688121 12.5625 14.8125 C13.00851562 15.699375 13.45453125 16.58625 13.9140625 17.5 C14.9375 19.8125 14.9375 19.8125 14.9375 21.8125 C15.5975 22.1425 16.2575 22.4725 16.9375 22.8125 C22.94957993 43.3032128 22.57955721 68.68747414 13.6875 88.25 C7.38680003 99.52594781 -0.85674126 107.43685064 -13.0625 111.8125 C-28.08439746 114.79187772 -38.29443894 112.32454071 -51.0625 103.8125 C-51.3925 120.9725 -51.7225 138.1325 -52.0625 155.8125 C-57.321875 155.668125 -62.58125 155.52375 -68 155.375 C-69.661521 155.33189697 -71.32304199 155.28879395 -73.03491211 155.24438477 C-74.33178955 155.20627686 -75.62866699 155.16816895 -76.96484375 155.12890625 C-77.65066528 155.11243042 -78.33648682 155.09595459 -79.04309082 155.07897949 C-83.9484282 154.9265718 -83.9484282 154.9265718 -85.0625 153.8125 C-85.15930041 151.76222261 -85.18436943 149.70855121 -85.18275452 147.6559906 C-85.18360894 147.00585135 -85.18446337 146.3557121 -85.18534368 145.68587166 C-85.18700026 143.4916442 -85.18147425 141.29749198 -85.17602539 139.10327148 C-85.17574353 137.53664146 -85.17590123 135.9700113 -85.1764679 134.40338135 C-85.17675592 130.13703623 -85.17085843 125.87071898 -85.16389394 121.60438037 C-85.15766118 117.15072949 -85.15705666 112.69707803 -85.15586853 108.24342346 C-85.15275498 99.80382557 -85.14454128 91.36424056 -85.13451904 82.92464834 C-85.12335863 73.31900556 -85.11784764 63.71336218 -85.11282361 54.10771453 C-85.10235868 34.34263422 -85.08401291 14.57757159 -85.0625 -5.1875 C-75.1625 -5.1875 -65.2625 -5.1875 -55.0625 -5.1875 C-54.4025 -2.2175 -53.7425 0.7525 -53.0625 3.8125 C-52.093125 2.905 -51.12375 1.9975 -50.125 1.0625 C-35.90543586 -11.16285698 -14.97941128 -9.85175227 0 0 Z M-51.0625 26.8125 C-51.3925 27.1425 -51.7225 27.4725 -52.0625 27.8125 C-52.19734058 29.33941683 -52.26416215 30.87241762 -52.30297852 32.40478516 C-52.32872452 33.38315338 -52.35447052 34.36152161 -52.3809967 35.36953735 C-52.46507975 39.86813961 -52.53107685 44.36656974 -52.57739258 48.86572266 C-52.60899131 51.23643772 -52.65670174 53.60699574 -52.72094727 55.97705078 C-52.81235338 59.39415985 -52.85103878 62.80841411 -52.87890625 66.2265625 C-52.91705948 67.28098541 -52.95521271 68.33540833 -52.99452209 69.42178345 C-52.98010633 75.11770217 -52.98010633 75.11770217 -50.38204956 80.03387451 C-44.98406903 84.95675469 -39.96059339 86.76384344 -32.703125 86.8359375 C-26.31084188 86.42837582 -22.42080934 84.17080934 -17.875 79.625 C-10.07174554 67.5165017 -10.46901444 49.82754017 -13.375 36.24609375 C-15.31908439 29.36447683 -18.08182829 24.79961448 -24.0625 20.8125 C-34.12016602 17.04087524 -43.97470179 18.39573963 -51.0625 26.8125 Z " fill="#00519D" transform="translate(382.0625,117.1875)"/>
<path d="M0 0 C1.33704956 1.1597892 2.65159657 2.34624967 3.9375 3.5625 C4.55625 4.12710938 5.175 4.69171875 5.8125 5.2734375 C7.25126705 6.63893401 8.60489426 8.09321675 9.9375 9.5625 C9.9375 10.2225 9.9375 10.8825 9.9375 11.5625 C10.5975 11.5625 11.2575 11.5625 11.9375 11.5625 C12.9073379 13.84985354 13.86323867 16.14161212 14.8125 18.4375 C15.08191406 19.06914062 15.35132813 19.70078125 15.62890625 20.3515625 C19.58232544 29.99404832 20.3608173 39.86931344 21.0625 50.1875 C21.14886719 51.38246094 21.23523438 52.57742187 21.32421875 53.80859375 C21.53428712 56.72620994 21.73859123 59.64410542 21.9375 62.5625 C18.98533436 64.03858282 16.39486563 63.63587333 13.10107422 63.58422852 C12.39852509 63.57462097 11.69597595 63.56501343 10.97213745 63.55511475 C8.64538689 63.52208161 6.31882157 63.48176588 3.9921875 63.44140625 C2.38079485 63.41710934 0.76939531 63.39326557 -0.8420105 63.36985779 C-5.08685139 63.30697413 -9.33157055 63.23791965 -13.57629395 63.16760254 C-17.9062749 63.09695772 -22.23634229 63.03211772 -26.56640625 62.96679688 C-35.06519986 62.83772936 -43.56387366 62.7021461 -52.0625 62.5625 C-52.0625 63.8825 -52.0625 65.2025 -52.0625 66.5625 C-51.0725 67.0575 -51.0725 67.0575 -50.0625 67.5625 C-49.39583333 69.22916667 -48.72916667 70.89583333 -48.0625 72.5625 C-44.92600889 78.83548222 -40.51907178 81.36970204 -34.0625 83.5625 C-24.81363228 85.57617753 -16.68447934 84.39713722 -8.0625 80.5625 C-5.77999613 79.04369104 -4.03672686 77.48336937 -2.0625 75.5625 C-1.4025 75.5625 -0.7425 75.5625 -0.0625 75.5625 C0.4325 74.0775 0.4325 74.0775 0.9375 72.5625 C4.69276392 74.09020964 6.78780625 76.34872306 9.4375 79.375 C10.1903125 80.22707031 10.943125 81.07914062 11.71875 81.95703125 C13.84453644 84.45333329 15.90518295 86.98977137 17.9375 89.5625 C13.80823142 98.65483177 4.84845247 104.22197153 -4.16015625 107.7890625 C-21.48542713 113.75737143 -39.62588864 113.20416252 -56.3125 105.4375 C-62.78909949 102.01686356 -67.93931915 97.75977644 -73.0625 92.5625 C-73.7225 91.9025 -74.3825 91.2425 -75.0625 90.5625 C-76.26532071 88.43220308 -77.39869865 86.30655872 -78.5 84.125 C-79.09683594 82.97128906 -79.69367187 81.81757813 -80.30859375 80.62890625 C-84.33256254 71.86621399 -85.57283246 63.32535185 -85.4375 53.75 C-85.42662354 52.69828613 -85.41574707 51.64657227 -85.40454102 50.56298828 C-85.05314991 33.35410598 -80.57707809 18.282197 -68.30078125 5.67578125 C-50.72592521 -10.91758196 -20.04414269 -14.98316314 0 0 Z M-47.0625 25.5625 C-50.53594346 30.45105005 -51.15855963 33.23491742 -52.0625 39.5625 C-38.5325 39.5625 -25.0025 39.5625 -11.0625 39.5625 C-12.09232438 29.1488898 -12.09232438 29.1488898 -17.0625 21.5625 C-27.434722 14.9392739 -38.92945216 15.89076743 -47.0625 25.5625 Z " fill="#01519D" transform="translate(745.0625,118.4375)"/>
<path d="M0 0 C12.96568675 12.67101205 18.66210741 27.9080062 19.10058594 45.80688477 C19.18276832 55.50358354 18.41909252 64.32614625 15.75 73.6875 C15.43095703 74.87666016 15.43095703 74.87666016 15.10546875 76.08984375 C14.68145595 77.63032192 14.22243374 79.16117559 13.75 80.6875 C13.09 80.6875 12.43 80.6875 11.75 80.6875 C10.67474806 83.33978812 9.65543849 85.97118454 8.75 88.6875 C6.27721648 91.23598098 3.48676979 93.42850528 0.75 95.6875 C0.03070313 96.30496094 -0.68859375 96.92242187 -1.4296875 97.55859375 C-13.6236481 107.64790279 -27.78873041 109.65578153 -43.25 108.6875 C-56.8168638 107.07588551 -68.59022464 101.75598373 -77.9609375 91.66796875 C-90.66330289 75.12888207 -93.10044327 55.39044946 -90.5625 35.0625 C-88.074799 20.98280339 -81.52861217 7.76592836 -70.25 -1.3125 C-48.81107317 -16.30105204 -21.0350433 -14.96724235 0 0 Z M-52.93359375 22.53515625 C-56.84997897 28.9385042 -58.92290531 36.21883793 -59.25 43.6875 C-59.32734375 45.02554688 -59.32734375 45.02554688 -59.40625 46.390625 C-59.74413128 57.14651232 -58.28560498 68.1607668 -51.25 76.6875 C-47.17628099 80.98142003 -43.91300545 81.21558288 -38.25 81.6875 C-37.755 82.1825 -37.755 82.1825 -37.25 82.6875 C-31.24481929 82.75071243 -26.91823673 81.6130627 -22.25 77.6875 C-13.68303853 69.12053853 -12.94524752 57.6858146 -12.93530273 46.13549805 C-13.09872874 35.99051472 -14.97508728 26.64631371 -22.33203125 19.2109375 C-27.04717638 15.46571021 -32.26482233 14.11714815 -38.2421875 14.41015625 C-44.55190702 15.28173229 -48.99578029 17.45999068 -52.93359375 22.53515625 Z " fill="#01519D" transform="translate(261.25,121.3125)"/>
<path d="M0 0 C1.3923683 0.00138269 1.3923683 0.00138269 2.81286526 0.00279331 C3.87442333 0.00141865 4.93598141 0.00004398 6.02970791 -0.00137234 C7.20430569 0.00222294 8.37890347 0.00581821 9.58909512 0.00952244 C10.81819103 0.00937641 12.04728695 0.00923038 13.3136282 0.00907993 C16.69365019 0.00965891 20.07361176 0.01468819 23.45362306 0.02165389 C26.98237542 0.02788795 30.5111285 0.02849127 34.03988552 0.0296793 C40.72639466 0.03279246 47.41288753 0.04100564 54.09938949 0.05102879 C61.7099065 0.06219039 69.32042427 0.06770049 76.93094742 0.07272422 C92.59036221 0.08318827 108.24976075 0.10078742 123.90916348 0.12304783 C124.91859152 3.15133195 125.0381565 5.21033247 125.04197598 8.37695408 C125.04326504 9.39595798 125.0445541 10.41496189 125.04588223 11.4648447 C125.04201504 12.52767673 125.03814785 13.59050877 125.03416348 14.68554783 C125.03803066 15.75224705 125.04189785 16.81894627 125.04588223 17.9179697 C125.04394863 19.44454197 125.04394863 19.44454197 125.04197598 21.00195408 C125.04084805 21.93596043 125.03972012 22.86996677 125.03855801 23.83227634 C124.90916348 26.12304783 124.90916348 26.12304783 123.90916348 28.12304783 C108.39916348 28.12304783 92.88916348 28.12304783 76.90916348 28.12304783 C76.90916348 70.36304783 76.90916348 112.60304783 76.90916348 156.12304783 C66.01916348 156.12304783 55.12916348 156.12304783 43.90916348 156.12304783 C43.90916348 113.88304783 43.90916348 71.64304783 43.90916348 28.12304783 C28.06916348 28.12304783 12.22916348 28.12304783 -4.09083652 28.12304783 C-3.94646152 23.68867283 -3.80208652 19.25429783 -3.65333652 14.68554783 C-3.6102335 13.28506199 -3.56713047 11.88457615 -3.52272129 10.44165134 C-3.48461338 9.34780125 -3.44650547 8.25395115 -3.40724277 7.12695408 C-3.37058506 6.00103855 -3.33392735 4.87512302 -3.29615879 3.71508884 C-3.01593652 0.17749089 -3.01593652 0.17749089 0 0 Z " fill="#01509B" transform="translate(36.09083652496338,71.87695217132568)"/>
<path d="M0 0 C0.495 0.99 0.495 0.99 1 2 C2.2375 1.91298828 2.2375 1.91298828 3.5 1.82421875 C17.40076648 1.28122006 30.39892375 4.58801785 41 14 C45.17171218 18.00589098 47.39270996 21.37448487 49 27 C49.66 27.33 50.32 27.66 51 28 C51.66796875 30.90625 51.66796875 30.90625 52.1875 34.5 C52.36667969 35.6859375 52.54585937 36.871875 52.73046875 38.09375 C52.81941406 39.0528125 52.90835938 40.011875 53 41 C52 42 52 42 50.15234375 42.09765625 C48.1015625 42.06510417 46.05078125 42.03255208 44 42 C44 41.67 44 41.34 44 41 C35.75 40.67 27.5 40.34 19 40 C18.01 37.03 17.02 34.06 16 31 C10.86394 25.86394 4.93889623 25.58595124 -2 25 C-2.33 25.66 -2.66 26.32 -3 27 C-3.94875 27.2475 -4.8975 27.495 -5.875 27.75 C-9.19748004 28.74965496 -9.19748004 28.74965496 -10.9375 31.75 C-12.15979434 35.48878268 -12.2904516 37.28995164 -11 41 C-7.49333485 44.31779629 -4.45282473 45.73445285 0.1875 46.9375 C1.41855469 47.27007812 2.64960937 47.60265625 3.91796875 47.9453125 C6.00392562 48.48885443 8.09184458 49.02314097 10.18212891 49.54980469 C39.45978614 56.95364314 39.45978614 56.95364314 48 70 C52.37297537 77.59648293 53.45466246 85.76274226 51.45703125 94.328125 C48.10060896 104.04506024 41.40002069 111.42861737 32.4375 116.25 C17.16626214 123.33615752 -2.30535956 124.73170301 -18.3515625 119.1875 C-30.53582494 114.16306188 -40.55990124 106.1615431 -46 94 C-47.48887044 89.8366771 -47 86.822406 -47 82 C-37.1 82 -27.2 82 -17 82 C-16.34 83.98 -15.68 85.96 -15 88 C-14.01 88.99 -14.01 88.99 -13 90 C-12.7525 90.639375 -12.505 91.27875 -12.25 91.9375 C-10.08675666 95.50685151 -6.50578095 96.56411604 -2.625 97.6875 C3.74694416 98.44606478 11.00379801 98.63733366 17 96 C19.72030172 92.0274959 19.77980365 87.63597556 19 83 C13.25724199 75.41135548 -2.14043018 73.62425447 -11 72 C-12.32 72 -13.64 72 -15 72 C-15 71.34 -15 70.68 -15 70 C-15.54527344 69.85304688 -16.09054687 69.70609375 -16.65234375 69.5546875 C-26.94866327 66.49219246 -34.68032175 60.71418463 -41 52 C-44.90140177 43.8601983 -44.75050396 34.47631269 -42 26 C-40.49461913 22.57055421 -38.82319069 19.27060925 -37 16 C-36.01 16 -35.02 16 -34 16 C-32.84952593 14.81568846 -31.70086233 13.62955179 -30.5625 12.43359375 C-22.32389729 4.87467576 -10.74970926 2.88112371 0 2 C0 1.34 0 0.68 0 0 Z " fill="#01519C" transform="translate(594,108)"/>
<path d="M0 0 C0 10.23 0 20.46 0 31 C-4.62 31 -9.24 31 -14 31 C-20.8727259 31.85909074 -25.70061824 32.51590774 -31 37 C-33.40252618 40.60378927 -33.30615998 43.2433842 -33.31884766 47.40893555 C-33.33391609 48.53613007 -33.33391609 48.53613007 -33.34928894 49.68609619 C-33.38017657 52.16962927 -33.39717139 54.65305428 -33.4140625 57.13671875 C-33.43276968 58.85879958 -33.45234275 60.5808712 -33.4727478 62.30293274 C-33.52412263 66.83532284 -33.56371966 71.36774268 -33.60089111 75.90026855 C-33.64089726 80.5253844 -33.69200504 85.15037598 -33.7421875 89.77539062 C-33.83901011 98.85017319 -33.92339459 107.92502583 -34 117 C-38.53897705 117.02465392 -43.07791543 117.04283789 -47.61694336 117.05493164 C-49.16219766 117.0599714 -50.70744716 117.0668032 -52.25268555 117.07543945 C-54.46925029 117.08752076 -56.68575218 117.09323173 -58.90234375 117.09765625 C-59.94454323 117.10539818 -59.94454323 117.10539818 -61.00779724 117.11329651 C-62.6722933 117.11349277 -64.33665499 117.06189129 -66 117 C-67 116 -67 116 -67.12304783 114.08095455 C-67.12212604 113.2338268 -67.12120424 112.38669905 -67.12025452 111.51390076 C-67.12162918 110.54489838 -67.12300385 109.575896 -67.12442017 108.57752991 C-67.12082489 107.50579025 -67.11722961 106.4340506 -67.11352539 105.32983398 C-67.11367142 104.20802734 -67.11381744 103.0862207 -67.1139679 101.93041992 C-67.1132682 98.20229189 -67.10547315 94.47421311 -67.09765625 90.74609375 C-67.09579227 88.16919482 -67.09436827 85.59229553 -67.09336853 83.01539612 C-67.08993342 76.91324885 -67.0820426 70.81112206 -67.07201904 64.70898253 C-67.06085689 57.7635075 -67.0553472 50.81803165 -67.05032361 43.87254989 C-67.03985996 29.58168876 -67.02151489 15.29084866 -67 1 C-56.77 1 -46.54 1 -36 1 C-36 4.63 -36 8.26 -36 12 C-35.34 12 -34.68 12 -34 12 C-33.73445313 11.40316406 -33.46890625 10.80632812 -33.1953125 10.19140625 C-30.33396721 4.94560655 -24.98065135 1.32688378 -19.3828125 -0.5390625 C-12.98181172 -1.77728888 -6.29804695 -1.57451174 0 0 Z " fill="#00519D" transform="translate(486,111)"/>
<path d="M0 0 C0 10.23 0 20.46 0 31 C-4.62 31 -9.24 31 -14 31 C-20.8727259 31.85909074 -25.70061824 32.51590774 -31 37 C-33.40252618 40.60378927 -33.30615998 43.2433842 -33.31884766 47.40893555 C-33.33391609 48.53613007 -33.33391609 48.53613007 -33.34928894 49.68609619 C-33.38017657 52.16962927 -33.39717139 54.65305428 -33.4140625 57.13671875 C-33.43276968 58.85879958 -33.45234275 60.5808712 -33.4727478 62.30293274 C-33.52412263 66.83532284 -33.56371966 71.36774268 -33.60089111 75.90026855 C-33.64089726 80.5253844 -33.69200504 85.15037598 -33.7421875 89.77539062 C-33.83901011 98.85017319 -33.92339459 107.92502583 -34 117 C-38.53897705 117.02465392 -43.07791543 117.04283789 -47.61694336 117.05493164 C-49.16219766 117.0599714 -50.70744716 117.0668032 -52.25268555 117.07543945 C-54.46925029 117.08752076 -56.68575218 117.09323173 -58.90234375 117.09765625 C-59.94454323 117.10539818 -59.94454323 117.10539818 -61.00779724 117.11329651 C-62.6722933 117.11349277 -64.33665499 117.06189129 -66 117 C-67 116 -67 116 -67.12304783 114.08095455 C-67.12212604 113.2338268 -67.12120424 112.38669905 -67.12025452 111.51390076 C-67.12162918 110.54489838 -67.12300385 109.575896 -67.12442017 108.57752991 C-67.12082489 107.50579025 -67.11722961 106.4340506 -67.11352539 105.32983398 C-67.11367142 104.20802734 -67.11381744 103.0862207 -67.1139679 101.93041992 C-67.1132682 98.20229189 -67.10547315 94.47421311 -67.09765625 90.74609375 C-67.09579227 88.16919482 -67.09436827 85.59229553 -67.09336853 83.01539612 C-67.08993342 76.91324885 -67.0820426 70.81112206 -67.07201904 64.70898253 C-67.06085689 57.7635075 -67.0553472 50.81803165 -67.05032361 43.87254989 C-67.03985996 29.58168876 -67.02151489 15.29084866 -67 1 C-56.77 1 -46.54 1 -36 1 C-36 3.64 -36 6.28 -36 9 C-36.33 9 -36.66 9 -37 9 C-37 6.69 -37 4.38 -37 2 C-46.24 2 -55.48 2 -65 2 C-64.67 39.29 -64.34 76.58 -64 115 C-54.43 115.33 -44.86 115.66 -35 116 C-35.00523682 113.65285889 -35.01047363 111.30571777 -35.01586914 108.88745117 C-35.03242476 101.14018041 -35.04347916 93.39290887 -35.05181217 85.64562511 C-35.05703501 80.94757846 -35.06412183 76.24954991 -35.07543945 71.55151367 C-35.08628956 67.01928339 -35.09228136 62.48707053 -35.09487724 57.95482826 C-35.09672765 56.2240401 -35.10034093 54.49325291 -35.10573006 52.76247215 C-35.11296862 50.34187113 -35.11398974 47.9213425 -35.11352539 45.50073242 C-35.11712067 44.78216064 -35.12071594 44.06358887 -35.12442017 43.32324219 C-35.11805582 40.26562905 -34.97532417 37.92597252 -34 35 C-33.01 35 -32.02 35 -31 35 C-30.773125 34.4225 -30.54625 33.845 -30.3125 33.25 C-28.66961977 30.4336339 -26.60466773 28.91922886 -24 27 C-24 27.66 -24 28.32 -24 29 C-22.74316406 28.75443359 -22.74316406 28.75443359 -21.4609375 28.50390625 C-17.79482693 27.97012717 -14.32760615 27.90256975 -10.625 27.9375 C-8.75714844 27.95103516 -8.75714844 27.95103516 -6.8515625 27.96484375 C-5.44003906 27.98224609 -5.44003906 27.98224609 -4 28 C-3.00544091 25.01632274 -2.80440368 22.7995808 -2.68359375 19.67578125 C-2.64169922 18.64775391 -2.59980469 17.61972656 -2.55664062 16.56054688 C-2.51732422 15.48869141 -2.47800781 14.41683594 -2.4375 13.3125 C-2.37272461 11.68731445 -2.37272461 11.68731445 -2.30664062 10.02929688 C-2.20053162 7.35299209 -2.09847639 4.67659474 -2 2 C-12.83078763 1.70683582 -21.15555734 2.26959485 -30 9 C-30.33 9.66 -30.66 10.32 -31 11 C-31.99 10.67 -32.98 10.34 -34 10 C-23.70416865 -0.03366898 -14.5202325 -3.63005813 0 0 Z " fill="#0C4E88" transform="translate(486,111)"/>
<path d="M0 0 C1.3923683 0.00138269 1.3923683 0.00138269 2.81286526 0.00279331 C3.87442333 0.00141865 4.93598141 0.00004398 6.02970791 -0.00137234 C7.20430569 0.00222294 8.37890347 0.00581821 9.58909512 0.00952244 C10.81819103 0.00937641 12.04728695 0.00923038 13.3136282 0.00907993 C16.69365019 0.00965891 20.07361176 0.01468819 23.45362306 0.02165389 C26.98237542 0.02788795 30.5111285 0.02849127 34.03988552 0.0296793 C40.72639466 0.03279246 47.41288753 0.04100564 54.09938949 0.05102879 C61.7099065 0.06219039 69.32042427 0.06770049 76.93094742 0.07272422 C92.59036221 0.08318827 108.24976075 0.10078742 123.90916348 0.12304783 C124.91859152 3.15133195 125.0381565 5.21033247 125.04197598 8.37695408 C125.04326504 9.39595798 125.0445541 10.41496189 125.04588223 11.4648447 C125.04201504 12.52767673 125.03814785 13.59050877 125.03416348 14.68554783 C125.03803066 15.75224705 125.04189785 16.81894627 125.04588223 17.9179697 C125.04394863 19.44454197 125.04394863 19.44454197 125.04197598 21.00195408 C125.04084805 21.93596043 125.03972012 22.86996677 125.03855801 23.83227634 C124.90916348 26.12304783 124.90916348 26.12304783 123.90916348 28.12304783 C108.72916348 28.12304783 93.54916348 28.12304783 77.90916348 28.12304783 C77.90916348 27.79304783 77.90916348 27.46304783 77.90916348 27.12304783 C92.42916348 27.12304783 106.94916348 27.12304783 121.90916348 27.12304783 C122.23916348 18.87304783 122.56916348 10.62304783 122.90916348 2.12304783 C119.32524746 2.15857761 115.74133144 2.1941074 112.04881191 2.23071384 C100.22238157 2.34720386 88.39590308 2.45806692 76.5693922 2.56601143 C69.39730026 2.63161148 62.22523631 2.69914869 55.05320644 2.77124119 C48.80231648 2.83406957 42.5514045 2.89326852 36.30043912 2.94810337 C32.9903911 2.97726675 29.68039289 3.00879262 26.37039852 3.04358196 C22.67598886 3.08210376 18.981576 3.11421046 15.28709316 3.14477634 C14.18873638 3.15772236 13.0903796 3.17066837 11.95873928 3.18400669 C10.95195629 3.19104618 9.9451733 3.19808567 8.90788174 3.20533848 C8.03402199 3.21363461 7.16016224 3.22193075 6.25982189 3.23047829 C4.00218505 3.12729913 2.07202759 2.75727437 -0.09083652 2.12304783 C0.09478848 2.74179783 0.28041348 3.36054783 0.47166348 3.99804783 C0.90916348 6.12304783 0.90916348 6.12304783 -0.09083652 8.12304783 C-0.42083652 14.39304783 -0.75083652 20.66304783 -1.09083652 27.12304783 C13.75916348 27.12304783 28.60916348 27.12304783 43.90916348 27.12304783 C43.90916348 27.45304783 43.90916348 27.78304783 43.90916348 28.12304783 C28.06916348 28.12304783 12.22916348 28.12304783 -4.09083652 28.12304783 C-3.94646152 23.68867283 -3.80208652 19.25429783 -3.65333652 14.68554783 C-3.6102335 13.28506199 -3.56713047 11.88457615 -3.52272129 10.44165134 C-3.48461338 9.34780125 -3.44650547 8.25395115 -3.40724277 7.12695408 C-3.37058506 6.00103855 -3.33392735 4.87512302 -3.29615879 3.71508884 C-3.01593652 0.17749089 -3.01593652 0.17749089 0 0 Z " fill="#0C4D7F" transform="translate(36.09083652496338,71.87695217132568)"/>
<path d="M0 0 C0.66 0 1.32 0 2 0 C2.33 51.15 2.66 102.3 3 155 C12.9 155 22.8 155 33 155 C32.67 155.66 32.34 156.32 32 157 C27.60324012 156.88202982 23.20671601 156.75780274 18.81030273 156.62768555 C17.31360731 156.58428187 15.81686061 156.54261087 14.32006836 156.50268555 C12.17285688 156.44511384 10.02590479 156.38138284 7.87890625 156.31640625 C5.93866577 156.26141968 5.93866577 156.26141968 3.95922852 156.20532227 C1 156 1 156 0 155 C-0.09672695 153.00038545 -0.1218703 150.99729807 -0.12025452 148.99534607 C-0.12162918 147.68977753 -0.12300385 146.38420898 -0.12442017 145.03907776 C-0.12088055 143.57870461 -0.11724573 142.11833169 -0.11352539 140.65795898 C-0.11324353 139.13073732 -0.11340123 137.60351553 -0.1139679 136.07629395 C-0.11425591 131.91738312 -0.10835855 127.75850089 -0.10139394 123.59959674 C-0.09516106 119.25805476 -0.09455665 114.91651219 -0.09336853 110.57496643 C-0.09025502 102.34786418 -0.08204137 94.12077514 -0.07201904 85.89367872 C-0.06085851 76.52986936 -0.05534761 67.16605938 -0.05032361 57.80224502 C-0.03985877 38.53482251 -0.02225895 19.26741231 0 0 Z " fill="#02427D" transform="translate(297,116)"/>
<path d="M0 0 C10.23 0 20.46 0 31 0 C31 2.64 31 5.28 31 8 C30.67 8 30.34 8 30 8 C30 5.69 30 3.38 30 1 C20.76 1 11.52 1 2 1 C2.33 38.29 2.66 75.58 3 114 C12.57 114.33 22.14 114.66 32 115 C32.495 113.515 32.495 113.515 33 112 C33 113.32 33 114.64 33 116 C28.46102295 116.02465392 23.92208457 116.04283789 19.38305664 116.05493164 C17.83780234 116.0599714 16.29255284 116.0668032 14.74731445 116.07543945 C12.53074971 116.08752076 10.31424782 116.09323173 8.09765625 116.09765625 C7.05545677 116.10539818 7.05545677 116.10539818 5.99220276 116.11329651 C4.3277067 116.11349277 2.66334501 116.06189129 1 116 C0 115 0 115 -0.12304783 113.08095455 C-0.12212604 112.2338268 -0.12120424 111.38669905 -0.12025452 110.51390076 C-0.12162918 109.54489838 -0.12300385 108.575896 -0.12442017 107.57752991 C-0.12082489 106.50579025 -0.11722961 105.4340506 -0.11352539 104.32983398 C-0.11367142 103.20802734 -0.11381744 102.0862207 -0.1139679 100.93041992 C-0.1132682 97.20229189 -0.10547315 93.47421311 -0.09765625 89.74609375 C-0.09579227 87.16919482 -0.09436827 84.59229553 -0.09336853 82.01539612 C-0.08993342 75.91324885 -0.0820426 69.81112206 -0.07201904 63.70898253 C-0.06085689 56.7635075 -0.0553472 49.81803165 -0.05032361 42.87254989 C-0.03985996 28.58168876 -0.02151489 14.29084866 0 0 Z " fill="#1D558A" transform="translate(419,112)"/>
<path d="M0 0 C1.92120937 0.08865694 3.84505728 0.12785743 5.76831055 0.12939453 C7.46983528 0.13412277 7.46983528 0.13412277 9.20573425 0.13894653 C10.42045914 0.1369223 11.63518402 0.13489807 12.88671875 0.1328125 C14.76675346 0.13424759 14.76675346 0.13424759 16.68476868 0.13571167 C19.33000157 0.13639147 21.97514172 0.13505463 24.62036133 0.13037109 C28.01332366 0.12465663 31.40620719 0.12796784 34.79916668 0.13394356 C38.0366869 0.1384192 41.27419751 0.13528947 44.51171875 0.1328125 C46.34291512 0.13584885 46.34291512 0.13584885 48.21110535 0.13894653 C49.33599869 0.13579437 50.46089203 0.13264221 51.61987305 0.12939453 C53.10948799 0.12820114 53.10948799 0.12820114 54.62919617 0.12698364 C57.01821942 0.15702998 57.01821942 0.15702998 59 -1 C59.99 -0.505 59.99 -0.505 61 0 C61 0.66 61 1.32 61 2 C61.99 2.33 62.98 2.66 64 3 C61.04783436 4.47608282 58.45736563 4.07337333 55.16357422 4.02172852 C54.46102509 4.01212097 53.75847595 4.00251343 53.03463745 3.99261475 C50.70788689 3.95958161 48.38132157 3.91926588 46.0546875 3.87890625 C44.44329485 3.85460934 42.83189531 3.83076557 41.2204895 3.80735779 C36.97564861 3.74447413 32.73092945 3.67541965 28.48620605 3.60510254 C24.1562251 3.53445772 19.82615771 3.46961772 15.49609375 3.40429688 C6.99730014 3.27522936 -1.50137366 3.1396461 -10 3 C-10 4.32 -10 5.64 -10 7 C-9.34 7.33 -8.68 7.66 -8 8 C-8.33 9.32 -8.66 10.64 -9 12 C-13.06153846 6.70769231 -13.06153846 6.70769231 -12.75 3.125 C-12.5025 2.42375 -12.255 1.7225 -12 1 C-7.40357543 -0.53214152 -4.66799484 -1.00878082 0 0 Z " fill="#114980" transform="translate(703,178)"/>
<path d="M0 0 C0.69029297 -0.01611328 1.38058594 -0.03222656 2.09179688 -0.04882812 C7.71957243 -0.05416251 11.56723642 1.29327203 15.92578125 4.8203125 C20.04065208 9.41210906 21.03470659 13.1840525 21.0625 19.3125 C22.0525 19.6425 23.0425 19.9725 24.0625 20.3125 C24.90704356 23.69067425 25.17094919 25.98715243 24.0625 29.3125 C24.7225 29.6425 25.3825 29.9725 26.0625 30.3125 C25.4025 30.9725 24.7425 31.6325 24.0625 32.3125 C23.82924719 34.97866825 23.69494699 37.579401 23.625 40.25 C22.84370077 57.90736267 22.84370077 57.90736267 17.375 63.5 C16.2303125 64.3971875 16.2303125 64.3971875 15.0625 65.3125 C14.0725 64.8175 14.0725 64.8175 13.0625 64.3125 C13.660625 63.673125 14.25875 63.03375 14.875 62.375 C22.88210254 51.16505645 22.36100187 34.39114462 20.3125 21.375 C19.02914618 15.3441345 17.08299001 10.38759785 12.75 5.9375 C6.04142342 1.88115137 -0.42179935 1.73893456 -7.9375 3.3125 C-10.55344996 4.42845793 -12.58007266 5.6884945 -14.9375 7.3125 C-14.9375 7.9725 -14.9375 8.6325 -14.9375 9.3125 C-15.9275 9.6425 -16.9175 9.9725 -17.9375 10.3125 C-17.9375 7.3125 -17.9375 7.3125 -15.75 4.75 C-10.80630023 0.4654602 -6.39283857 -0.02967892 0 0 Z " fill="#0F487D" transform="translate(347.9375,134.6875)"/>
<path d="M0 0 C1.3125 0.9375 2.625 1.875 3.9375 2.8125 C4.5975 3.1425 5.2575 3.4725 5.9375 3.8125 C6.6212045 5.13717746 7.28714186 6.47113633 7.9375 7.8125 C8.9275 8.8025 8.9275 8.8025 9.9375 9.8125 C12.9375 15.35096154 12.9375 15.35096154 12.9375 17.8125 C12.2775 17.8125 11.6175 17.8125 10.9375 17.8125 C7.9375 12.0625 7.9375 12.0625 7.9375 9.8125 C6.9475 9.4825 5.9575 9.1525 4.9375 8.8125 C4.2775 7.8225 3.6175 6.8325 2.9375 5.8125 C1.9475 5.4825 0.9575 5.1525 -0.0625 4.8125 C-0.74892578 3.85923828 -0.74892578 3.85923828 -1.44921875 2.88671875 C-3.39483347 0.38521411 -4.93097627 -0.26703408 -7.875 -1.375 C-8.70644531 -1.69855469 -9.53789062 -2.02210937 -10.39453125 -2.35546875 C-15.73055867 -4.01955929 -20.80505551 -4.32426335 -26.375 -4.3125 C-27.60863281 -4.31507812 -28.84226562 -4.31765625 -30.11328125 -4.3203125 C-32.95004261 -4.52481736 -32.95004261 -4.52481736 -34.0625 -3.1875 C-35.2175 -3.043125 -36.3725 -2.89875 -37.5625 -2.75 C-38.7175 -2.564375 -39.8725 -2.37875 -41.0625 -2.1875 C-41.3925 -1.5275 -41.7225 -0.8675 -42.0625 -0.1875 C-43.7125 -0.1875 -45.3625 -0.1875 -47.0625 -0.1875 C-47.7225 1.4625 -48.3825 3.1125 -49.0625 4.8125 C-49.7225 4.8125 -50.3825 4.8125 -51.0625 4.8125 C-51.0625 5.4725 -51.0625 6.1325 -51.0625 6.8125 C-52.7125 6.8125 -54.3625 6.8125 -56.0625 6.8125 C-55.4025 5.4925 -54.7425 4.1725 -54.0625 2.8125 C-53.4025 2.8125 -52.7425 2.8125 -52.0625 2.8125 C-51.216875 2.07 -50.37125 1.3275 -49.5 0.5625 C-35.61496003 -11.44618322 -14.45693635 -9.50812771 0 0 Z " fill="#0B4B88" transform="translate(382.0625,117.1875)"/>
<path d="M0 0 C1.125 3.75 1.125 3.75 0 6 C-0.01990006 7.39584695 0.00728036 8.79260376 0.0625 10.1875 C0.1063118 13.26406176 -0.06336686 15.20198187 -1 18.1875 C-4.48281127 31.46571795 -1.02446847 45.93064113 5 58 C8.50087587 63.75815703 14.33033566 71.85365641 21.1640625 73.53125 C21.76992188 73.6859375 22.37578125 73.840625 23 74 C24.25 76.5625 24.25 76.5625 25 79 C21.33019773 77.68843334 18.54832963 76.10791666 15.5 73.6875 C14.7678125 73.11386719 14.035625 72.54023438 13.28125 71.94921875 C8.46079923 67.83037469 5.20102605 64.09157324 2.375 58.375 C1.80523438 57.24835938 1.23546875 56.12171875 0.6484375 54.9609375 C-3.23376804 46.19100537 -4.50526813 37.7225103 -4.375 28.1875 C-4.36521118 26.62298096 -4.36521118 26.62298096 -4.35522461 25.02685547 C-4.21046173 16.65657489 -3.81357369 7.62714739 0 0 Z " fill="#0B477D" transform="translate(664,144)"/>
<path d="M0 0 C0.99 0 1.98 0 3 0 C1.67491631 4.26829842 0.03433232 8.14788032 -2 12.125 C-2.515625 13.13820313 -3.03125 14.15140625 -3.5625 15.1953125 C-4.036875 16.12085937 -4.51125 17.04640625 -5 18 C-5.2475 18.73992187 -5.495 19.47984375 -5.75 20.2421875 C-7.81565705 23.14701772 -10.61860568 23.23645935 -14 24 C-15.36308448 24.3287842 -16.72507431 24.66213948 -18.0859375 25 C-19.08705566 25.2475 -19.08705566 25.2475 -20.10839844 25.5 C-26.5771797 27.20986887 -31.94741153 29.57898509 -37 34 C-37.66 34 -38.32 34 -39 34 C-39.33 34.99 -39.66 35.98 -40 37 C-40.99 36.67 -41.98 36.34 -43 36 C-42.01 32.7 -41.02 29.4 -40 26 C-39.67 26 -39.34 26 -39 26 C-39 27.65 -39 29.3 -39 31 C-38.67 29.35 -38.34 27.7 -38 26 C-37.34 26 -36.68 26 -36 26 C-35.67 25.01 -35.34 24.02 -35 23 C-34.01 22.67 -33.02 22.34 -32 22 C-31.67 23.32 -31.34 24.64 -31 26 C-29.39125 25.319375 -29.39125 25.319375 -27.75 24.625 C-23.10346509 22.82634132 -18.47666021 22.30782215 -13.5390625 21.8203125 C-12.70117188 21.54960938 -11.86328125 21.27890625 -11 21 C-9.70787101 18.58747762 -9.70787101 18.58747762 -9 16 C-8.34 15.38125 -7.68 14.7625 -7 14.125 C-4.38972662 11.35158453 -3.95986799 8.63378597 -3 5 C-2.34 4.67 -1.68 4.34 -1 4 C-0.34786708 1.97536745 -0.34786708 1.97536745 0 0 Z " fill="#EBCE39" transform="translate(600,88)"/>
<path d="M0 0 C9.9 0 19.8 0 30 0 C30 0.66 30 1.32 30 2 C21.09 2 12.18 2 3 2 C2.46077062 9.53692621 2.46077062 9.53692621 5.125 15.125 C5.57875 15.76824219 6.0325 16.41148437 6.5 17.07421875 C6.995 17.70972656 7.49 18.34523437 8 19 C8.515625 19.66644531 9.03125 20.33289063 9.5625 21.01953125 C12.62755301 24.88550341 12.62755301 24.88550341 17 27 C17.45375 27.474375 17.9075 27.94875 18.375 28.4375 C20.38576214 30.37092514 22.39052205 31.0831564 25 32 C25 32.66 25 33.32 25 34 C26.32 34.66 27.64 35.32 29 36 C19.7017305 34.94736572 11.78807432 28.14304337 6 21 C1.10089479 13.50500528 0 9.15840462 0 0 Z " fill="#0C4988" transform="translate(547,190)"/>
<path d="M0 0 C2.769807 2.39102997 3.84454644 4.63546469 5.0625 8.0625 C5.38347656 8.94035156 5.70445312 9.81820312 6.03515625 10.72265625 C8.39663439 18.74403341 9.36129975 26.39710945 9.3125 34.75 C9.30839111 36.18581421 9.30839111 36.18581421 9.30419922 37.65063477 C9.19013814 45.43759743 8.14092231 52.49110664 6 60 C5.78730469 60.79277344 5.57460938 61.58554688 5.35546875 62.40234375 C4.93145595 63.94282192 4.47243374 65.47367559 4 67 C3.34 67 2.68 67 2 67 C0.92474806 69.65228812 -0.09456151 72.28368454 -1 75 C-1.99 75 -2.98 75 -4 75 C-3.34 73.02 -2.68 71.04 -2 69 C-1.34 69 -0.68 69 0 69 C0.19916016 68.20335937 0.19916016 68.20335937 0.40234375 67.390625 C1.6015625 62.59375 2.80078125 57.796875 4 53 C4.66 53 5.32 53 6 53 C5.979375 51.700625 5.95875 50.40125 5.9375 49.0625 C5.91600546 47.70834367 5.92851801 46.35243917 6 45 C6.495 44.505 6.495 44.505 7 44 C7.09860131 42.59651265 7.13078937 41.18819523 7.1328125 39.78125 C7.13410156 38.93175781 7.13539063 38.08226562 7.13671875 37.20703125 C7.13285156 36.31371094 7.12898438 35.42039063 7.125 34.5 C7.12886719 33.60667969 7.13273437 32.71335938 7.13671875 31.79296875 C7.13542969 30.94347656 7.13414062 30.09398437 7.1328125 29.21875 C7.13168457 28.43435547 7.13055664 27.64996094 7.12939453 26.84179688 C7.20107442 24.98247012 7.20107442 24.98247012 6 24 C5.46178999 20.96974198 5.03443179 17.92923012 4.59765625 14.8828125 C4.15019525 11.81986187 4.15019525 11.81986187 2 9 C0.42846223 5.5950015 0 3.85713879 0 0 Z " fill="#0C467D" transform="translate(271,135)"/>
<path d="M0 0 C1.32 0 2.64 0 4 0 C4 1.32 4 2.64 4 4 C3.34 4 2.68 4 2 4 C-0.05612234 17.43822817 -1.36549151 30.6003579 2 44 C2.66 44.33 3.32 44.66 4 45 C4.433125 45.928125 4.86625 46.85625 5.3125 47.8125 C7.77002765 52.45449667 10.43208656 54.40833455 15.3125 56.25 C16.199375 56.4975 17.08625 56.745 18 57 C17.67 57.66 17.34 58.32 17 59 C16.01 59 15.02 59 14 59 C14 58.34 14 57.68 14 57 C13.443125 56.896875 12.88625 56.79375 12.3125 56.6875 C7.10145263 55.1382697 4.13269371 52.3633948 1 48 C0.67 47.34 0.34 46.68 0 46 C-0.66 46 -1.32 46 -2 46 C-2 45.34 -2 44.68 -2 44 C-1.34 44 -0.68 44 0 44 C-0.32452148 43.48356934 -0.64904297 42.96713867 -0.98339844 42.43505859 C-2.33158692 39.20575218 -2.25926183 36.53562697 -2.265625 33.0390625 C-2.26753845 32.37087494 -2.2694519 31.70268738 -2.27142334 31.01425171 C-2.27278097 29.60389834 -2.269114 28.1935323 -2.26074219 26.78320312 C-2.25006985 24.63903269 -2.2606337 22.49570644 -2.2734375 20.3515625 C-2.27211517 18.97656067 -2.26955126 17.60155936 -2.265625 16.2265625 C-2.26336914 14.98471191 -2.26111328 13.74286133 -2.25878906 12.46337891 C-1.99861352 8.98144469 -1.17489658 6.26859261 0 3 C0 2.01 0 1.02 0 0 Z " fill="#09487F" transform="translate(203,146)"/>
<path d="M0 0 C4.65777207 6.98665811 5.85294784 13.78170867 7 22 C7.66 22 8.32 22 9 22 C10.59138085 26.17737474 11.21278058 29.53160785 11 34 C11.66 34 12.32 34 13 34 C13.28875 35.093125 13.5775 36.18625 13.875 37.3125 C16.19300069 43.6727285 21.35112474 48.25518172 26 53 C23 53 23 53 21.17578125 51.5390625 C20.56089844 50.90742188 19.94601562 50.27578125 19.3125 49.625 C18.68988281 48.99851562 18.06726563 48.37203125 17.42578125 47.7265625 C16 46 16 46 16 44 C15.34 44 14.68 44 14 44 C6.9691564 30.80810788 -0.4266352 15.26904928 0 0 Z " fill="#F5DB37" transform="translate(485,224)"/>
<path d="M0 0 C3.57441911 0.35273873 6.61916221 0.97940491 9.96875 2.29296875 C11.763125 2.94265625 11.763125 2.94265625 13.59375 3.60546875 C18.99305529 6.7550635 20.14855623 13.71204405 21.96875 19.29296875 C22.46375 20.28296875 22.46375 20.28296875 22.96875 21.29296875 C23.21218642 25.41297667 23.15395245 29.54157782 23.15625 33.66796875 C23.16849609 34.8178125 23.18074219 35.96765625 23.19335938 37.15234375 C23.19529297 38.25835937 23.19722656 39.364375 23.19921875 40.50390625 C23.20332764 41.51759277 23.20743652 42.5312793 23.21166992 43.57568359 C22.96653067 46.31779397 22.37567215 47.95448779 20.96875 50.29296875 C20.98969727 49.63401611 21.01064453 48.97506348 21.03222656 48.29614258 C22.11351058 27.68295776 22.11351058 27.68295776 14.21875 9.16796875 C9.96654969 4.86234884 4.94297459 3.19132374 -1.03125 2.98046875 C-5.20700029 3.13788791 -9.02449148 4.1481806 -13.03125 5.29296875 C-10.01486448 -0.73980228 -6.06758207 -0.27245211 0 0 Z " fill="#0C4A82" transform="translate(226.03125,133.70703125)"/>
<path d="M0 0 C3.87832382 3.47007921 5.53459142 6.04015559 7 11 C7.66 11.33 8.32 11.66 9 12 C9.66796875 14.90625 9.66796875 14.90625 10.1875 18.5 C10.36667969 19.6859375 10.54585937 20.871875 10.73046875 22.09375 C10.81941406 23.0528125 10.90835938 24.011875 11 25 C10 26 10 26 8.15234375 26.09765625 C6.1015625 26.06510417 4.05078125 26.03255208 2 26 C2 25.67 2 25.34 2 25 C-6.25 24.67 -14.5 24.34 -23 24 C-24.33333333 20 -25.66666667 16 -27 12 C-26.01 12 -25.02 12 -24 12 C-22 15 -22 15 -21 23 C-11.76 22.67 -2.52 22.34 7 22 C6.401875 19.421875 5.80375 16.84375 5.1875 14.1875 C5.00598389 13.37949951 4.82446777 12.57149902 4.63745117 11.73901367 C3.72037659 7.93766084 2.96641232 5.55842438 0 3 C0 2.01 0 1.02 0 0 Z " fill="#0A3E70" transform="translate(636,124)"/>
<path d="M0 0 C3.81029019 5.71543528 3.47467024 11.32918791 3 18 C1.09749494 26.43537169 -4.30680002 33.67178177 -11 39 C-18.66740786 43.60888203 -26.84998221 47.57187611 -36 47 C-36 46.34 -36 45.68 -36 45 C-33.03 45 -30.06 45 -27 45 C-27 44.34 -27 43.68 -27 43 C-25.88625 42.62875 -24.7725 42.2575 -23.625 41.875 C-16.17324071 39.0590054 -10.03857304 35.98756039 -6 29 C-5.34 29 -4.68 29 -4 29 C-4.33 28.01 -4.66 27.02 -5 26 C-4.01 26 -3.02 26 -2 26 C0.12764994 19.8196835 1.47675477 14.55537815 1 8 C0.505 7.505 0.505 7.505 0 7 C-0.04092937 4.66702567 -0.04241723 2.33294775 0 0 Z " fill="#0C457A" transform="translate(643,182)"/>
<path d="M0 0 C0.33 0 0.66 0 1 0 C1.02746229 1.68740514 1.04660111 3.3749463 1.0625 5.0625 C1.07410156 6.00222656 1.08570313 6.94195312 1.09765625 7.91015625 C1 11 1 11 0.51367188 14.07617188 C-0.09042988 18.69077423 -0.22838324 23.22268829 -0.31640625 27.87109375 C-0.33718735 28.793423 -0.35796844 29.71575226 -0.37937927 30.66603088 C-0.44435638 33.58978383 -0.50351684 36.51362061 -0.5625 39.4375 C-0.60573461 41.42904486 -0.64935042 43.42058148 -0.69335938 45.41210938 C-0.79998407 50.27465537 -0.90139503 55.13728504 -1 60 C-1.33 60 -1.66 60 -2 60 C-3.03645643 52.54836933 -3.18611841 45.20891952 -3.18530273 37.6940918 C-3.18747119 35.46708525 -3.20562225 33.24058999 -3.22460938 31.01367188 C-3.26457032 20.75366413 -3.27364738 9.82094214 0 0 Z " fill="#EDD640" transform="translate(486,164)"/>
<path d="M0 0 C0.4125 0.38671875 0.825 0.7734375 1.25 1.171875 C9.41062159 8.53100697 16.80505417 11.55595668 28 11 C34.2684699 9.71626107 40.02665421 8.15041807 45 4 C45.66 4.33 46.32 4.66 47 5 C44.00146037 8.34452498 41.05376925 10.10824102 37 12 C36.67 12.33 36.34 12.66 36 13 C34.17672623 13.42119932 32.3407278 13.78816579 30.5 14.125 C29.4996875 14.31320313 28.499375 14.50140625 27.46875 14.6953125 C26.24671875 14.84613281 26.24671875 14.84613281 25 15 C24.67 14.67 24.34 14.34 24 14 C22.66930004 13.86633594 21.33493397 13.76861578 20 13.6875 C14.79372226 13.17936729 10.62633927 11.34740259 6 9 C5.34 8.67 4.68 8.34 4 8 C4 7.34 4 6.68 4 6 C3.34 6 2.68 6 2 6 C0 3 0 3 0 0 Z " fill="#0A4882" transform="translate(696,192)"/>
<path d="M0 0 C0.99 1.32 1.98 2.64 3 4 C2.67 4.66 2.34 5.32 2 6 C1.67 12.27 1.34 18.54 1 25 C15.85 25 30.7 25 46 25 C46 25.33 46 25.66 46 26 C30.16 26 14.32 26 -2 26 C-1.855625 21.895625 -1.71125 17.79125 -1.5625 13.5625 C-1.51939697 12.26642822 -1.47629395 10.97035645 -1.43188477 9.63500977 C-1.39377686 8.62237061 -1.35566895 7.60973145 -1.31640625 6.56640625 C-1.27974854 5.52427979 -1.24309082 4.48215332 -1.20532227 3.40844727 C-1 1 -1 1 0 0 Z " fill="#144D82" transform="translate(34,74)"/>
<path d="M0 0 C1.1725131 0.95117134 2.33787015 1.91117009 3.5 2.875 C4.47453125 3.67550781 4.47453125 3.67550781 5.46875 4.4921875 C5.9740625 4.98976563 6.479375 5.48734375 7 6 C7 6.66 7 7.32 7 8 C7.66 8 8.32 8 9 8 C14.60241515 21.21324327 17.20925722 32.55853967 18 47 C17.01 47.66 16.02 48.32 15 49 C14.95101562 47.80503906 14.90203125 46.61007813 14.8515625 45.37890625 C14.34141749 34.06771888 13.302606 24.55607748 8.8046875 14.06640625 C8 12 8 12 8 10 C7.34 10 6.68 10 6 10 C5.7525 9.195625 5.505 8.39125 5.25 7.5625 C4.27761141 4.828919 4.27761141 4.828919 1.875 4.1875 C1.25625 4.125625 0.6375 4.06375 0 4 C0 2.68 0 1.36 0 0 Z " fill="#0C4479" transform="translate(748,122)"/>
<path d="M0 0 C2.68860931 -0.10887507 5.37273158 -0.18770594 8.0625 -0.25 C8.81466797 -0.28351563 9.56683594 -0.31703125 10.34179688 -0.3515625 C16.09790955 -0.45123545 19.30483506 0.62086048 24 4 C27.92107042 7.81070917 28.64797619 10.9444544 29.25 16.3125 C29.39953125 17.56675781 29.5490625 18.82101563 29.703125 20.11328125 C29.80109375 21.06589844 29.8990625 22.01851562 30 23 C27.60646656 20.60646656 27.57921806 19.46988997 27.0625 16.1875 C26.05282528 10.63627463 26.05282528 10.63627463 23 6 C17.30149213 2.41029546 11.67374868 0.9977154 5 2 C-0.20613724 3.64861013 -3.50941838 5.79076923 -7 10 C-7.86119134 12.17346568 -7.86119134 12.17346568 -8 14 C-8.66 14 -9.32 14 -10 14 C-9.71120683 10.24568878 -9.51295789 7.69615714 -7.25 4.625 C-4.77861843 2.84011331 -3.00580638 2.33397849 0 2 C0 1.34 0 0.68 0 0 Z " fill="#0B4478" transform="translate(705,135)"/>
<path d="M0 0 C0 6.93 0 13.86 0 21 C-0.33 21 -0.66 21 -1 21 C-1 14.73 -1 8.46 -1 2 C-12.30697053 1.78462913 -20.78370057 1.98662092 -30 9 C-30.33 9.66 -30.66 10.32 -31 11 C-31.99 10.67 -32.98 10.34 -34 10 C-23.70416865 -0.03366898 -14.5202325 -3.63005813 0 0 Z " fill="#124B82" transform="translate(486,111)"/>
<path d="M0 0 C0.99 0.495 0.99 0.495 2 1 C2.03758423 2.83159668 2.03758423 2.83159668 2.07592773 4.70019531 C2.17013579 9.23269045 2.27032384 13.76503714 2.37231445 18.29736328 C2.4156126 20.25859096 2.45729131 22.2198551 2.49731445 24.18115234 C2.55514099 27.00108828 2.61879984 29.82084161 2.68359375 32.640625 C2.70030624 33.51680481 2.71701874 34.39298462 2.73423767 35.29571533 C2.75418289 36.11626404 2.77412811 36.93681274 2.79467773 37.78222656 C2.81022202 38.50170471 2.8257663 39.22118286 2.84178162 39.96246338 C3.0053942 42.06946646 3.42999531 43.96835737 4 46 C1.62266757 44.31365692 0.17036212 42.94719944 -0.35754395 40.01208496 C-0.46311614 37.47368097 -0.44901618 34.961863 -0.390625 32.421875 C-0.38496521 31.4953009 -0.37930542 30.56872681 -0.37347412 29.61407471 C-0.35110921 26.65885438 -0.30091262 23.70485295 -0.25 20.75 C-0.22993515 18.7448092 -0.21168435 16.73959936 -0.1953125 14.734375 C-0.151244 9.82244806 -0.08221555 4.91143058 0 0 Z " fill="#004B83" transform="translate(328,153)"/>
<path d="M0 0 C2.94456657 0.41086975 5.59929344 0.8361349 8.359375 1.96484375 C20.22691221 6.61705878 32.36702716 4.65792037 44.50390625 2.3046875 C47 2 47 2 50 3 C48.62708132 3.48509793 47.25153297 3.96275513 45.875 4.4375 C44.72644531 4.83775391 44.72644531 4.83775391 43.5546875 5.24609375 C29.60075437 9.36399756 12.79023868 7.86633866 0 1 C0 0.67 0 0.34 0 0 Z " fill="#0F487C" transform="translate(198,223)"/>
<path d="M0 0 C0.33 0.99 0.66 1.98 1 3 C0.67 3.66 0.34 4.32 0 5 C-0.15175549 6.59262066 -0.24900325 8.19064856 -0.31640625 9.7890625 C-0.35830078 10.73007813 -0.40019531 11.67109375 -0.44335938 12.640625 C-0.50233398 14.11789063 -0.50233398 14.11789063 -0.5625 15.625 C-0.60568359 16.61757812 -0.64886719 17.61015625 -0.69335938 18.6328125 C-0.79961069 21.08839838 -0.90164964 23.54408703 -1 26 C1.475 26.99 1.475 26.99 4 28 C3.34 28.33 2.68 28.66 2 29 C2.78130071 31.49552484 2.78130071 31.49552484 4 34 C4.99 34.33 5.98 34.66 7 35 C8.6875 37.5625 8.6875 37.5625 10 40 C6.69777222 38.58164226 4.72376959 36.89324118 2.375 34.1875 C1.78460937 33.52105469 1.19421875 32.85460937 0.5859375 32.16796875 C-3.85378401 26.09889132 -4.51140633 18.52057943 -3.68359375 11.203125 C-2.91740845 7.12484733 -1.97905887 3.66585166 0 0 Z " fill="#0D4980" transform="translate(554,130)"/>
<path d="M0 0 C1.05445313 -0.00257813 2.10890625 -0.00515625 3.1953125 -0.0078125 C5.875 0.125 5.875 0.125 7.875 1.125 C7.875 1.785 7.875 2.445 7.875 3.125 C8.535 3.455 9.195 3.785 9.875 4.125 C4.595 3.465 -0.685 2.805 -6.125 2.125 C-6.455 2.785 -6.785 3.445 -7.125 4.125 C-8.07375 4.3725 -9.0225 4.62 -10 4.875 C-13.30964057 5.87504192 -13.30964057 5.87504192 -15.0625 8.8125 C-16.30398682 12.68301774 -15.99024278 15.19207829 -15.125 19.125 C-19 17.375 -19 17.375 -20.125 15.125 C-20.28289443 12.0460587 -20.11115995 10.08347985 -19.125 7.125 C-17.19921875 5.5546875 -17.19921875 5.5546875 -14.8125 4 C-14.03261719 3.48179687 -13.25273438 2.96359375 -12.44921875 2.4296875 C-8.28296094 0.09098144 -4.74355814 -0.01165493 0 0 Z " fill="#0B457C" transform="translate(598.125,130.875)"/>
<path d="M0 0 C2.34250464 2.05683334 3.52771967 3.35261508 4.5625 6.25 C3.5725 6.25 2.5825 6.25 1.5625 6.25 C0.97855469 5.4353125 0.39460937 4.620625 -0.20703125 3.78125 C-2.23678248 0.95537951 -2.23678248 0.95537951 -5.57421875 0.65625 C-12.79959226 0.84701894 -18.74692167 1.54857402 -25.4375 4.25 C-29.10811675 5.5102976 -32.35056305 5.15782433 -36.1875 4.8125 C-37.35796875 4.71066406 -38.5284375 4.60882813 -39.734375 4.50390625 C-40.62640625 4.42011719 -41.5184375 4.33632813 -42.4375 4.25 C-42.4375 3.92 -42.4375 3.59 -42.4375 3.25 C-41.19355469 3.05664062 -39.94960938 2.86328125 -38.66796875 2.6640625 C-36.98694745 2.40124447 -35.30596011 2.13820916 -33.625 1.875 C-32.31909912 1.67136841 -32.31909912 1.67136841 -30.98681641 1.46362305 C-26.4095584 0.74334171 -21.85780489 -0.03364109 -17.3125 -0.9375 C-11.05265334 -2.07300707 -5.80885041 -2.95723293 0 0 Z " fill="#F1D94B" transform="translate(596.4375,50.75)"/>
<path d="M0 0 C3.57410797 2.68058098 6.31941902 5.42589203 9 9 C6.01784601 15.65137288 0.68617237 20.22768463 -6 23 C-6.33 22.34 -6.66 21.68 -7 21 C-5.16457099 18.87476641 -4.10928517 18.03382636 -1.375 17.1875 C-0.59125 16.795625 0.1925 16.40375 1 16 C1.89830839 12.94727535 1.89830839 12.94727535 2 10 C1.34 10 0.68 10 0 10 C0.66 8.68 1.32 7.36 2 6 C1.01 4.68 0.02 3.36 -1 2 C-0.67 1.34 -0.34 0.68 0 0 Z " fill="#025095" transform="translate(754,199)"/>
<path d="M0 0 C0.66 1.32 1.32 2.64 2 4 C3.32 3.67 4.64 3.34 6 3 C4.84031651 6.47905046 4.16252073 6.81138872 1.125 8.625 C0.42632813 9.05039063 -0.27234375 9.47578125 -0.9921875 9.9140625 C-3 11 -3 11 -6 12 C-6.33 12.99 -6.66 13.98 -7 15 C-7.99 14.67 -8.98 14.34 -10 14 C-9.01 10.7 -8.02 7.4 -7 4 C-6.67 4 -6.34 4 -6 4 C-6 5.65 -6 7.3 -6 9 C-5.67 7.35 -5.34 5.7 -5 4 C-4.34 4 -3.68 4 -3 4 C-2.67 3.01 -2.34 2.02 -2 1 C-1.34 0.67 -0.68 0.34 0 0 Z " fill="#F5D614" transform="translate(567,110)"/>
<path d="M0 0 C0.33 0.66 0.66 1.32 1 2 C1.825 1.94199219 2.65 1.88398437 3.5 1.82421875 C16.4343618 1.31897024 28.40824051 4.27684204 39 12 C35.2734375 13.1015625 35.2734375 13.1015625 32.8125 12.1875 C31 11 31 11 30 9 C24.85574397 6.69281221 19.55217927 5.69402241 14 5 C13.67 4.67 13.34 4.34 13 4 C11.36527118 3.91299658 9.72685945 3.89298937 8.08984375 3.90234375 C6.60581055 3.90717773 6.60581055 3.90717773 5.09179688 3.91210938 C3.53041992 3.92467773 3.53041992 3.92467773 1.9375 3.9375 C0.37032227 3.94426758 0.37032227 3.94426758 -1.22851562 3.95117188 C-3.8190666 3.96300087 -6.40950559 3.97948311 -9 4 C-9 3.67 -9 3.34 -9 3 C-4.545 2.505 -4.545 2.505 0 2 C0 1.34 0 0.68 0 0 Z " fill="#205B74" transform="translate(594,108)"/>
<path d="M0 0 C0 3.38023517 -0.87455622 5.83468937 -2 9 C-2.99 9 -3.98 9 -5 9 C-5.37705078 9.87591797 -5.37705078 9.87591797 -5.76171875 10.76953125 C-7.15577597 13.28059332 -8.66221244 14.79212225 -10.8125 16.6875 C-11.47894531 17.28949219 -12.14539063 17.89148438 -12.83203125 18.51171875 C-15.24783282 20.17013389 -17.11803815 20.62277986 -20 21 C-15.76183463 15.93376232 -11.32591037 11.19961931 -6.625 6.5625 C-5.98433594 5.92634766 -5.34367188 5.29019531 -4.68359375 4.63476562 C-3.12469121 3.08749668 -1.56348584 1.54263508 0 0 Z " fill="#F6D624" transform="translate(537,88)"/>
<path d="M0 0 C0.66 0 1.32 0 2 0 C0.41308036 4.39131732 -1.84028491 8.29761734 -4.1875 12.3125 C-7.8410804 18.65975279 -10.97085674 25.10188635 -13.79174805 31.85864258 C-15.01761915 34.79375825 -16.22714446 37.34071668 -18 40 C-17.25 32.375 -17.25 32.375 -15 29 C-14.61500109 27.34450469 -14.27206865 25.6777567 -14 24 C-13.34 24 -12.68 24 -12 24 C-11.896875 22.948125 -11.79375 21.89625 -11.6875 20.8125 C-11.02050668 17.11371887 -10.25009992 14.97013189 -8 12 C-7.34 12 -6.68 12 -6 12 C-6 10.68 -6 9.36 -6 8 C-4.71034824 6.62437146 -3.37310707 5.29233607 -2 4 C-0.76487921 1.86690808 -0.76487921 1.86690808 0 0 Z " fill="#ECD33D" transform="translate(529,141)"/>
<path d="M0 0 C1.65 0 3.3 0 5 0 C6.00942804 3.02828412 6.12899302 5.08728464 6.1328125 8.25390625 C6.13474609 9.78241211 6.13474609 9.78241211 6.13671875 11.34179688 C6.13285156 12.40462891 6.12898438 13.46746094 6.125 14.5625 C6.13080078 16.16254883 6.13080078 16.16254883 6.13671875 17.79492188 C6.13542969 18.81263672 6.13414062 19.83035156 6.1328125 20.87890625 C6.13168457 21.8129126 6.13055664 22.74691895 6.12939453 23.70922852 C6 26 6 26 5 28 C-10.18 28 -25.36 28 -41 28 C-41 27.67 -41 27.34 -41 27 C-26.48 27 -11.96 27 3 27 C3.33 18.42 3.66 9.84 4 1 C2.68 0.67 1.36 0.34 0 0 Z " fill="#13497E" transform="translate(155,72)"/>
<path d="M0 0 C0.99 0.33 1.98 0.66 3 1 C3.144375 1.598125 3.28875 2.19625 3.4375 2.8125 C4.18702663 5.72732577 5.87176477 6.94041752 8 9 C8 9.66 8 10.32 8 11 C9.71509766 11.07347656 9.71509766 11.07347656 11.46484375 11.1484375 C12.95575473 11.22345189 14.44663892 11.29900028 15.9375 11.375 C17.06961914 11.42140625 17.06961914 11.42140625 18.22460938 11.46875 C20.15507395 11.5726315 22.07942081 11.77895614 24 12 C24.33 12.66 24.66 13.32 25 14 C24.01 15.485 24.01 15.485 23 17 C22.34 17 21.68 17 21 17 C20.67 17.99 20.34 18.98 20 20 C19.34 20 18.68 20 18 20 C19.875 16.125 19.875 16.125 21 15 C20.28714844 14.99742188 19.57429687 14.99484375 18.83984375 14.9921875 C12.70188059 14.74435588 8.79539249 14.09448533 4.37109375 9.69140625 C2.01310977 6.78255421 0 3.82461027 0 0 Z " fill="#F0D839" transform="translate(521,68)"/>
<path d="M0 0 C0.66 0.33 1.32 0.66 2 1 C0.71086513 1.67154933 -0.58140204 2.33708859 -1.875 3 C-2.59429688 3.37125 -3.31359375 3.7425 -4.0546875 4.125 C-6 5 -6 5 -8 5 C-8.33 5.99 -8.66 6.98 -9 8 C-9.66 8 -10.32 8 -11 8 C-10.67 8.66 -10.34 9.32 -10 10 C-10 10.99 -10 11.98 -10 13 C-10.804375 13.12375 -11.60875 13.2475 -12.4375 13.375 C-13.283125 13.58125 -14.12875 13.7875 -15 14 C-15.33 14.66 -15.66 15.32 -16 16 C-16.639375 16.12375 -17.27875 16.2475 -17.9375 16.375 C-20.19851273 16.80939427 -20.19851273 16.80939427 -21.25 19.0625 C-21.4975 19.701875 -21.745 20.34125 -22 21 C-22.66 21 -23.32 21 -24 21 C-20.7673072 11.41978018 -11.69300729 5.39357769 -3 1 C-2.01 0.67 -1.02 0.34 0 0 Z " fill="#0D487E" transform="translate(694,113)"/>
<path d="M0 0 C0.33 0 0.66 0 1 0 C1.02187378 1.19206055 1.02187378 1.19206055 1.04418945 2.40820312 C1.32127612 22.20983313 1.32127612 22.20983313 4.28125 41.73828125 C5.10791573 45.48972628 5.5672233 49.18407467 6 53 C4.11608215 49.73454239 3.50712033 46.71888239 3 43 C2.34 43 1.68 43 1 43 C-0.09876924 33.76761312 -0.11742666 24.59096021 -0.0625 15.3125 C-0.05747144 13.82096506 -0.05291095 12.32942846 -0.04882812 10.83789062 C-0.03793804 7.22522538 -0.02074936 3.61262368 0 0 Z " fill="#EDD745" transform="translate(506,205)"/>
<path d="M0 0 C0.66 0 1.32 0 2 0 C1.85851011 1.6045556 1.71164314 3.20863767 1.5625 4.8125 C1.48128906 5.70582031 1.40007812 6.59914062 1.31640625 7.51953125 C1 10 1 10 0 13 C-0.15070797 15.13661258 -0.2485966 17.27712124 -0.31640625 19.41796875 C-0.35830078 20.67158203 -0.40019531 21.92519531 -0.44335938 23.21679688 C-0.48267578 24.52712891 -0.52199219 25.83746094 -0.5625 27.1875 C-0.60570992 28.52279978 -0.649325 29.85808652 -0.69335938 31.19335938 C-0.79956502 34.46213297 -0.90160997 37.73098333 -1 41 C-1.33 41 -1.66 41 -2 41 C-3.69617581 26.97626074 -3.98471566 13.63816371 0 0 Z " fill="#F3D523" transform="translate(507,192)"/>
<path d="M0 0 C1.76865741 2.18976632 3.08016972 4.17637339 4.25 6.75 C6.94962319 11.76358592 10.45309439 17.15103146 16 19 C16.45375 19.474375 16.9075 19.94875 17.375 20.4375 C19.38576214 22.37092514 21.39052205 23.0831564 24 24 C24 24.66 24 25.32 24 26 C25.32 26.66 26.64 27.32 28 28 C18.69320226 26.94640026 10.80007746 20.13968926 5 13 C2.03567887 8.56856562 0 5.41234379 0 0 Z " fill="#0E4679" transform="translate(548,198)"/>
<path d="M0 0 C0.66 0.33 1.32 0.66 2 1 C0.73046875 2.49739583 -0.5390625 3.99479167 -1.80859375 5.4921875 C-3.0878152 7.00594079 -3.0878152 7.00594079 -4 9 C-4.99 9 -5.98 9 -7 9 C-7 9.99 -7 10.98 -7 12 C-7.66 12 -8.32 12 -9 12 C-9.309375 12.94875 -9.61875 13.8975 -9.9375 14.875 C-11 18 -11 18 -12 20 C-12.66 20 -13.32 20 -14 20 C-14.144375 21.27875 -14.28875 22.5575 -14.4375 23.875 C-14.70642746 26.25692894 -14.92226346 27.84452691 -16 30 C-16.66 30 -17.32 30 -18 30 C-16.35821449 17.38810219 -8.68844441 8.68844441 0 0 Z " fill="#0F467E" transform="translate(191,120)"/>
<path d="M0 0 C0.66 1.32 1.32 2.64 2 4 C1.34 4 0.68 4 0 4 C-0.33 5.32 -0.66 6.64 -1 8 C-6.97863225 8.7591914 -12.96642069 9.45790557 -19 9 C-19.33 8.67 -19.66 8.34 -20 8 C-22.32817964 7.63239269 -24.6618385 7.29758419 -27 7 C-27 6.34 -27 5.68 -27 5 C-25.42412109 5.14308594 -25.42412109 5.14308594 -23.81640625 5.2890625 C-12.75977647 6.27183843 -12.75977647 6.27183843 -2 4 C-0.74911022 1.99451455 -0.74911022 1.99451455 0 0 Z " fill="#06498B" transform="translate(613,200)"/>
<path d="M0 0 C0 0.33 0 0.66 0 1 C-5.61 1 -11.22 1 -17 1 C-17 1.66 -17 2.32 -17 3 C-18.27875 3.12375 -19.5575 3.2475 -20.875 3.375 C-24.34790936 3.69042399 -24.34790936 3.69042399 -27 6 C-28.61941456 6.7860966 -30.27003765 7.50925173 -31.9375 8.1875 C-33.25041016 8.73470703 -33.25041016 8.73470703 -34.58984375 9.29296875 C-37 10 -37 10 -40 9 C-27.10524892 0.184783 -15.12733898 -0.45382017 0 0 Z " fill="#11487F" transform="translate(233,110)"/>
<path d="M0 0 C-2.54504378 2.54504378 -3.71877032 2.30703663 -7.25 2.5 C-11.50305329 2.81011847 -14.97941458 3.53796894 -19 5 C-24.07135161 5.93913919 -28.86620818 6.09006652 -34 6 C-34.33 6.99 -34.66 7.98 -35 9 C-35 7.68 -35 6.36 -35 5 C-28.82218564 3.558695 -22.64036341 2.36533164 -16.375 1.375 C-15.56804688 1.2409375 -14.76109375 1.106875 -13.9296875 0.96875 C-9.22070983 0.21959446 -4.76749523 -0.14059637 0 0 Z " fill="#F1D344" transform="translate(554,55)"/>
<path d="M0 0 C2.64 0.33 5.28 0.66 8 1 C8 1.66 8 2.32 8 3 C12.29 3 16.58 3 21 3 C21.33 3.99 21.66 4.98 22 6 C26.62 6 31.24 6 36 6 C36 6.33 36 6.66 36 7 C23.48944916 7.47308806 11.4117989 6.70589945 0 1 C0 0.67 0 0.34 0 0 Z " fill="#0D4982" transform="translate(689,223)"/>
<path d="M0 0 C0.66 0 1.32 0 2 0 C1.34 2.97 0.68 5.94 0 9 C13.53 9 27.06 9 41 9 C41 9.33 41 9.66 41 10 C27.14 10 13.28 10 -1 10 C-1.98484577 5.07577115 -2.03342293 4.18645898 0 0 Z " fill="#175388" transform="translate(693,149)"/>
<path d="M0 0 C0.66 0.33 1.32 0.66 2 1 C1.73166253 7.44009937 -0.41528515 11.4611323 -5 16 C-13.20382166 22 -13.20382166 22 -18 22 C-17.505 20.515 -17.505 20.515 -17 19 C-15.783125 18.5875 -14.56625 18.175 -13.3125 17.75 C-8.41714426 16.04803044 -5.68829593 13.39674569 -3 9 C-1.75798336 6.05196806 -0.80020529 3.09553099 0 0 Z " fill="#154378" transform="translate(246,184)"/>
<path d="M0 0 C0.33 0 0.66 0 1 0 C1.39036513 1.60049704 1.76178619 3.20562371 2.125 4.8125 C2.33382812 5.70582031 2.54265625 6.59914062 2.7578125 7.51953125 C3 10 3 10 1 13 C0.62216511 16.64954156 0.49366594 20.27986767 0.34375 23.9453125 C0.2303125 24.95335937 0.116875 25.96140625 0 27 C-0.66 27.33 -1.32 27.66 -2 28 C-2.23889655 18.40432207 -1.78831859 9.46850826 0 0 Z " fill="#0A4C86" transform="translate(172,150)"/>
<path d="M0 0 C0.33 0 0.66 0 1 0 C2.21159994 4.13963313 2.18442264 5.63751411 0.1875 9.5625 C-0.18503906 10.14257812 -0.55757813 10.72265625 -0.94140625 11.3203125 C-2.27623014 13.43829875 -3.14647436 15.6528045 -4 18 C-4.66 18 -5.32 18 -6 18 C-6 19.98 -6 21.96 -6 24 C-6.66 24.33 -7.32 24.66 -8 25 C-7.49415394 18.73035874 -5.95028185 13.74207972 -3.4375 8 C-3.10814453 7.22527344 -2.77878906 6.45054687 -2.43945312 5.65234375 C-1.63531413 3.76436524 -0.81892829 1.8816107 0 0 Z " fill="#F2D13B" transform="translate(495,139)"/>
<path d="M0 0 C7.41106365 1.4506343 14.8798435 2.30350413 22.375 3.1875 C22.375 3.5175 22.375 3.8475 22.375 4.1875 C3.2138564 4.62024854 3.2138564 4.62024854 -4.625 2.1875 C-5.285 1.5275 -5.945 0.8675 -6.625 0.1875 C-3.99573338 -1.12713331 -2.86193109 -0.60091907 0 0 Z " fill="#0A4980" transform="translate(582.625,225.8125)"/>
<path d="M0 0 C2.22652997 3.33979496 3.64941252 6.79338073 5.125 10.5 C5.40214844 11.17675781 5.67929687 11.85351562 5.96484375 12.55078125 C7.15187214 15.5154285 8 17.77680496 8 21 C5.29120665 22.35439668 2.99066732 22.06501451 0 22 C-0.33 21.34 -0.66 20.68 -1 20 C0.32 19.67 1.64 19.34 3 19 C4.12865035 15.67424363 3.8691177 13.87796829 2.625 10.625 C1.34485838 7.08853571 0.48037278 3.74690769 0 0 Z " fill="#F1D73F" transform="translate(512,258)"/>
<path d="M0 0 C5.74875678 0.11497514 10.18997096 1.78036333 15.3125 4.3125 C15.92303223 4.60842041 16.53356445 4.90434082 17.16259766 5.20922852 C20.64386765 6.9942109 22.94876804 8.6454582 25 12 C21 12 21 12 19.6875 10.75 C19.130625 10.1725 18.57375 9.595 18 9 C14.55241094 6.72963647 11.12887525 4.66062004 7 4 C7 3.34 7 2.68 7 2 C4.36 2 1.72 2 -1 2 C-0.67 1.34 -0.34 0.68 0 0 Z " fill="#0B4474" transform="translate(236,111)"/>
<path d="M0 0 C3 1 6 2 9 3 C9 3.66 9 4.32 9 5 C10.11375 5.144375 11.2275 5.28875 12.375 5.4375 C16 6 16 6 18 7 C18 7.66 18 8.32 18 9 C17.195625 8.74476563 17.195625 8.74476563 16.375 8.484375 C8.3301063 5.99680919 0.17666464 3.99851481 -8 2 C-8 1.67 -8 1.34 -8 1 C-6.865625 1.020625 -5.73125 1.04125 -4.5625 1.0625 C-1.18424326 1.41577477 -1.18424326 1.41577477 0 0 Z " fill="#0B457B" transform="translate(592,178)"/>
<path d="M0 0 C1.010625 0.5775 2.02125 1.155 3.0625 1.75 C9.32805246 4.92243162 16.21556485 6.33922681 23 8 C23 8.66 23 9.32 23 10 C19.38130725 11.20623092 18.48228086 10.38241877 15.18359375 8.8359375 C10.96141067 7.21957403 6.45223103 6.68433931 2 6 C1.34 4.02 0.68 2.04 0 0 Z " fill="#0D4A80" transform="translate(583,150)"/>
<path d="M0 0 C3.87832382 3.47007921 5.53459142 6.04015559 7 11 C7.66 11.33 8.32 11.66 9 12 C9.4140625 14.28515625 9.4140625 14.28515625 9.625 17.0625 C9.69976563 17.98160156 9.77453125 18.90070313 9.8515625 19.84765625 C9.90054688 20.55792969 9.94953125 21.26820313 10 22 C9.34 22.33 8.68 22.66 8 23 C7.71125 21.96875 7.4225 20.9375 7.125 19.875 C6.44727916 17.49576725 5.72050398 15.16151195 4.9375 12.8125 C4 10 4 10 3.5625 7.8125 C3.114496 5.87191973 3.114496 5.87191973 1.4375 4.4375 C0.963125 3.963125 0.48875 3.48875 0 3 C0 2.01 0 1.02 0 0 Z " fill="#0B4C80" transform="translate(636,124)"/>
<path d="M0 0 C8.9370327 1.57225575 15.88958487 4.12578298 22 11 C21.236875 10.690625 20.47375 10.38125 19.6875 10.0625 C17.81210323 9.32106407 15.91315348 8.63771783 14 8 C13.67 7.34 13.34 6.68 13 6 C10.7058459 5.68573231 8.44226779 5.62075424 6.12890625 5.5390625 C5.42636719 5.36117187 4.72382812 5.18328125 4 5 C2.83984375 3.0234375 2.83984375 3.0234375 2 1 C1.34 0.67 0.68 0.34 0 0 Z " fill="#0E467A" transform="translate(726,111)"/>
<path d="M0 0 C0.66 0 1.32 0 2 0 C2.33 1.98 2.66 3.96 3 6 C12.9 6 22.8 6 33 6 C32.67 6.66 32.34 7.32 32 8 C27.60324012 7.88202982 23.20671601 7.75780274 18.81030273 7.62768555 C17.31360731 7.58428187 15.81686061 7.54261087 14.32006836 7.50268555 C12.17285688 7.44511384 10.02590479 7.38138284 7.87890625 7.31640625 C6.5854126 7.27974854 5.29191895 7.24309082 3.95922852 7.20532227 C1 7 1 7 0 6 C-0.04080783 4.00041636 -0.04254356 1.99954746 0 0 Z " fill="#13487C" transform="translate(297,265)"/>
<path d="M0 0 C1.11375 0.7115625 1.11375 0.7115625 2.25 1.4375 C8.72778086 4.63810567 16.47838049 4.8197065 23.25 2.5625 C24.50930405 2.06458368 25.76370827 1.55258494 27 1 C26 4 26 4 23.8046875 5.13671875 C17.83665592 6.97367555 10.83916038 8.11797376 4.875 5.8125 C2.0441705 4.02784662 0.97840476 3.15263755 0 0 Z " fill="#0F4A81" transform="translate(334,199)"/>
<path d="M0 0 C4.95035664 0.55510912 8.93211209 2.17591171 13.3125 4.4375 C13.94478516 4.75009766 14.57707031 5.06269531 15.22851562 5.38476562 C19.86855595 7.7371119 19.86855595 7.7371119 21 10 C15.12448273 9.30053366 10.89030921 7.26020614 6 4 C4.00787329 2.98440599 2.0088485 1.98210371 0 1 C0 0.67 0 0.34 0 0 Z " fill="#0F4981" transform="translate(614,161)"/>
<path d="M0 0 C0.33 0 0.66 0 1 0 C2.22399452 6.64041122 2.11227753 13.20221697 2.0625 19.9375 C2.05798828 21.09830078 2.05347656 22.25910156 2.04882812 23.45507812 C2.03710647 26.30343934 2.0206976 29.15169222 2 32 C1.67 32 1.34 32 1 32 C1 24.74 1 17.48 1 10 C0.34 10 -0.32 10 -1 10 C-1.125 2.25 -1.125 2.25 0 0 Z " fill="#0E4A7E" transform="translate(400,150)"/>
<path d="M0 0 C-9.40750422 3.39182125 -17.0588494 4.16848967 -27 3 C-27 2.67 -27 2.34 -27 2 C-25.90945312 1.92652344 -25.90945312 1.92652344 -24.796875 1.8515625 C-18.26637379 1.36596113 -11.9259837 0.55138595 -5.49609375 -0.6953125 C-3 -1 -3 -1 0 0 Z " fill="#064684" transform="translate(248,226)"/>
<path d="M0 0 C0 0.33 0 0.66 0 1 C-2.33163378 1.67258667 -4.6652039 2.33847444 -7 3 C-7.8971875 3.29390625 -7.8971875 3.29390625 -8.8125 3.59375 C-11.86749206 4.16110567 -14.66178346 3.84043949 -17.75 3.5625 C-18.92046875 3.46066406 -20.0909375 3.35882813 -21.296875 3.25390625 C-22.63492188 3.12822266 -22.63492188 3.12822266 -24 3 C-24 2.67 -24 2.34 -24 2 C-15.97649696 0.81603117 -8.13544686 -0.28545428 0 0 Z " fill="#F3D131" transform="translate(578,52)"/>
<path d="M0 0 C0.66 0.33 1.32 0.66 2 1 C-2.47815168 5.85599573 -7.04303931 10.02836673 -13 13 C-13.66 13 -14.32 13 -15 13 C-15 12.34 -15 11.68 -15 11 C-14.01 11 -13.02 11 -12 11 C-11.67 10.01 -11.34 9.02 -11 8 C-9.2578125 6.71875 -9.2578125 6.71875 -7.125 5.5 C-4.35713796 3.90669196 -2.17282718 2.35047971 0 0 Z " fill="#0B4780" transform="translate(264,212)"/>
<path d="M0 0 C2.97 0 5.94 0 9 0 C9 1.98 9 3.96 9 6 C8.34 6 7.68 6 7 6 C6.67 5.34 6.34 4.68 6 4 C4.02 5.32 2.04 6.64 0 8 C0.33 6.68 0.66 5.36 1 4 C1.66 4 2.32 4 3 4 C3 3.34 3 2.68 3 2 C2.01 1.67 1.02 1.34 0 1 C0 0.67 0 0.34 0 0 Z " fill="#F3D21F" transform="translate(554,106)"/>
<path d="M0 0 C0.33 0 0.66 0 1 0 C1 2.97 1 5.94 1 9 C1.99 8.67 2.98 8.34 4 8 C6.23786817 8.24245894 8.46775934 8.56388029 10.6875 8.9375 C11.86699219 9.13214844 13.04648437 9.32679687 14.26171875 9.52734375 C15.16535156 9.68332031 16.06898437 9.83929688 17 10 C17 10.33 17 10.66 17 11 C11.39 11 5.78 11 0 11 C0 7.37 0 3.74 0 0 Z " fill="#014A93" transform="translate(35,88)"/>
<path d="M0 0 C-7.37635358 3.08963187 -13.97613274 5.59200675 -22 6 C-18.25 4 -18.25 4 -16 4 C-15.67 3.34 -15.34 2.68 -15 2 C-12.3828125 1.11328125 -12.3828125 1.11328125 -9.125 0.3125 C-8.05507813 0.04050781 -6.98515625 -0.23148438 -5.8828125 -0.51171875 C-3 -1 -3 -1 0 0 Z " fill="#094477" transform="translate(748,223)"/>
<path d="M0 0 C0.66 0 1.32 0 2 0 C2.50780894 2.20655075 3.00591365 4.41533605 3.5 6.625 C3.7784375 7.85476562 4.056875 9.08453125 4.34375 10.3515625 C4.94091621 13.67152228 5.12409534 16.63908451 5 20 C0.98711359 13.98067039 -0.46715232 7.16300229 0 0 Z " fill="#0C4681" transform="translate(171,179)"/>
<path d="M0 0 C0.99 0.495 0.99 0.495 2 1 C2.4140625 3.06640625 2.4140625 3.06640625 2.625 5.5625 C2.69976562 6.38878906 2.77453125 7.21507812 2.8515625 8.06640625 C2.92503906 9.02353516 2.92503906 9.02353516 3 10 C3.99 10.33 4.98 10.66 6 11 C6.84454356 14.37817425 7.10844919 16.67465243 6 20 C6.66 20.33 7.32 20.66 8 21 C7.01 21.33 6.02 21.66 5 22 C5 19.03 5 16.06 5 13 C4.34 13 3.68 13 3 13 C-0.42857143 4.57142857 -0.42857143 4.57142857 0 0 Z " fill="#064A87" transform="translate(366,144)"/>
<path d="M0 0 C9.9 0 19.8 0 30 0 C29.67 0.66 29.34 1.32 29 2 C27.94872925 1.99214478 27.94872925 1.99214478 26.8762207 1.98413086 C23.68832299 1.96329148 20.50043964 1.95031768 17.3125 1.9375 C15.65831055 1.92493164 15.65831055 1.92493164 13.97070312 1.91210938 C12.90400391 1.90888672 11.83730469 1.90566406 10.73828125 1.90234375 C9.75899658 1.89710693 8.77971191 1.89187012 7.77075195 1.88647461 C5.07530428 1.99691457 2.62454361 2.39465834 0 3 C0 2.01 0 1.02 0 0 Z " fill="#105188" transform="translate(297,112)"/>
<path d="M0 0 C0.99 0.33 1.98 0.66 3 1 C-5.07744875 9.6309795 -5.07744875 9.6309795 -11 12 C-11.33 11.34 -11.66 10.68 -12 10 C-10.25737466 7.9822233 -9.10541993 7.03784305 -6.5625 6.125 C-3.35134666 4.71522536 -2.00571417 2.82285699 0 0 Z " fill="#0B4175" transform="translate(759,210)"/>
<path d="M0 0 C0.33 0.66 0.66 1.32 1 2 C1.66 2 2.32 2 3 2 C4.42258812 5.82320557 5.24042276 8.91281305 5 13 C2 12 2 12 1.015625 10.29296875 C0.76296875 9.59816406 0.5103125 8.90335938 0.25 8.1875 C-0.01296875 7.50042969 -0.2759375 6.81335938 -0.546875 6.10546875 C-1.06056958 3.71856031 -0.76282269 2.29362227 0 0 Z " fill="#F6D821" transform="translate(491,244)"/>
<path d="M0 0 C0 0.99 0 1.98 0 3 C-0.804375 3.12375 -1.60875 3.2475 -2.4375 3.375 C-3.7059375 3.684375 -3.7059375 3.684375 -5 4 C-5.33 4.66 -5.66 5.32 -6 6 C-6.639375 6.12375 -7.27875 6.2475 -7.9375 6.375 C-10.19851273 6.80939427 -10.19851273 6.80939427 -11.25 9.0625 C-11.4975 9.701875 -11.745 10.34125 -12 11 C-12.66 11 -13.32 11 -14 11 C-12.68317904 7.04953712 -11.33535359 4.54540142 -8 2 C-5.34021831 1.09812 -2.76598331 0.55319666 0 0 Z " fill="#084A8B" transform="translate(684,123)"/>
<path d="M0 0 C3.96 0 7.92 0 12 0 C12.33 0.66 12.66 1.32 13 2 C12.01 3.485 12.01 3.485 11 5 C10.34 5 9.68 5 9 5 C8.67 5.99 8.34 6.98 8 8 C7.34 8 6.68 8 6 8 C7.875 4.125 7.875 4.125 9 3 C8.2575 2.87625 7.515 2.7525 6.75 2.625 C4 2 4 2 0 0 Z " fill="#F4D629" transform="translate(533,80)"/>
<path d="M0 0 C0.33 0 0.66 0 1 0 C1 6.27 1 12.54 1 19 C0.01 19.33 -0.98 19.66 -2 20 C-2 20.99 -2 21.98 -2 23 C-2.66 23 -3.32 23 -4 23 C-4.625 21.1875 -4.625 21.1875 -5 19 C-4.01 17.515 -4.01 17.515 -3 16 C-2.01 16.66 -1.02 17.32 0 18 C0 12.06 0 6.12 0 0 Z " fill="#014991" transform="translate(278,160)"/>
<path d="M0 0 C2.53731364 1.26865682 2.78646846 2.49709121 4 5 C4.66 5.66 5.32 6.32 6 7 C9 12.53846154 9 12.53846154 9 15 C8.34 15 7.68 15 7 15 C4 9.25 4 9.25 4 7 C3.01 6.67 2.02 6.34 1 6 C-0.6875 3.4375 -0.6875 3.4375 -2 1 C-1.34 0.67 -0.68 0.34 0 0 Z " fill="#084175" transform="translate(386,120)"/>
<path d="M0 0 C-1.4031723 3.33434242 -2.96989805 5.05526479 -5.875 7.1875 C-6.55304688 7.69667969 -7.23109375 8.20585937 -7.9296875 8.73046875 C-9.98361986 9.98995557 -11.64588985 10.56190327 -14 11 C-13.34 10.01 -12.68 9.02 -12 8 C-11.01 8 -10.02 8 -9 8 C-8.773125 7.4225 -8.54625 6.845 -8.3125 6.25 C-6.47530093 3.10051589 -3.84497849 0 0 0 Z " fill="#094073" transform="translate(388,215)"/>
<path d="M0 0 C0.28875 0.639375 0.5775 1.27875 0.875 1.9375 C1.82823451 4.15206079 1.82823451 4.15206079 4 5 C4.4140625 7.28515625 4.4140625 7.28515625 4.625 10.0625 C4.69976562 10.98160156 4.77453125 11.90070313 4.8515625 12.84765625 C4.90054687 13.55792969 4.94953125 14.26820313 5 15 C3.68 14.34 2.36 13.68 1 13 C1.020625 11.865625 1.04125 10.73125 1.0625 9.5625 C1.41577477 6.18424326 1.41577477 6.18424326 0 5 C-0.04063832 3.33382885 -0.042721 1.66611905 0 0 Z " fill="#09497B" transform="translate(395,135)"/>
<path d="M0 0 C0.33 0 0.66 0 1 0 C1 8.25 1 16.5 1 25 C0.01 25 -0.98 25 -2 25 C-1.84152588 24.27530518 -1.68305176 23.55061035 -1.51977539 22.80395508 C-1.03901777 20.21048338 -0.80242678 17.7680216 -0.68359375 15.13671875 C-0.64169922 14.25048828 -0.59980469 13.36425781 -0.55664062 12.45117188 C-0.51732422 11.53916016 -0.47800781 10.62714844 -0.4375 9.6875 C-0.37272461 8.29047852 -0.37272461 8.29047852 -0.30664062 6.86523438 C-0.20102775 4.57695546 -0.09892248 2.28857628 0 0 Z " fill="#014890" transform="translate(249,160)"/>
<path d="M0 0 C0.33 0 0.66 0 1 0 C1 1.65 1 3.3 1 5 C2.32 5.33 3.64 5.66 5 6 C4.360625 6.268125 3.72125 6.53625 3.0625 6.8125 C0.66868314 7.88667752 0.66868314 7.88667752 0 11 C-0.99 10.67 -1.98 10.34 -3 10 C-2.01 6.7 -1.02 3.4 0 0 Z " fill="#C5BE42" transform="translate(560,114)"/>
<path d="M0 0 C6.77410989 1.70740884 12.28498896 3.96117935 18 8 C14.2734375 9.1015625 14.2734375 9.1015625 11.8125 8.1875 C10 7 10 7 9 5 C6.88672575 4.09274566 6.88672575 4.09274566 4.4375 3.375 C3.61121094 3.11460938 2.78492188 2.85421875 1.93359375 2.5859375 C1.29550781 2.39257812 0.65742187 2.19921875 0 2 C0 1.34 0 0.68 0 0 Z " fill="#10467A" transform="translate(615,112)"/>
<path d="M0 0 C2.375 0.1875 2.375 0.1875 5 1 C5.66666667 2.66666667 6.33333333 4.33333333 7 6 C9.54775306 6.89386164 9.54775306 6.89386164 12 7 C12 7.66 12 8.32 12 9 C7.5053662 7.74568359 4.40851589 6.21374355 1 3 C0.67 2.01 0.34 1.02 0 0 Z " fill="#0A4981" transform="translate(330,218)"/>
<path d="M0 0 C4.20626034 1.50223584 5.73900021 4.28550034 8 8 C6.68 7.67 5.36 7.34 4 7 C4 6.34 4 5.68 4 5 C1.69 4.67 -0.62 4.34 -3 4 C-2.34 3.67 -1.68 3.34 -1 3 C-0.67 2.01 -0.34 1.02 0 0 Z " fill="#064484" transform="translate(746,191)"/>
<path d="M0 0 C-6.59061323 1.99251098 -13.2857397 3.4855052 -20 5 C-18.69686568 2.39373136 -17.67987646 2.09816185 -15 1 C-12.99295546 0.53932266 -10.96932662 0.14736114 -8.9375 -0.1875 C-7.37322266 -0.45626953 -7.37322266 -0.45626953 -5.77734375 -0.73046875 C-3 -1 -3 -1 0 0 Z " fill="#D2CE49" transform="translate(592,110)"/>
<path d="M0 0 C-0.66 0 -1.32 0 -2 0 C-2 0.66 -2 1.32 -2 2 C-5.90028225 4.60018816 -9.47434569 4.15085514 -14 4 C-9.89239426 0.52433361 -5.34448487 -2.0555711 0 0 Z " fill="#2A5C63" transform="translate(584,113)"/>
<path d="M0 0 C0.99 0 1.98 0 3 0 C6 5.75 6 5.75 6 8 C5.401875 7.690625 4.80375 7.38125 4.1875 7.0625 C1.91043228 5.89790296 1.91043228 5.89790296 -1 5 C-0.67 3.35 -0.34 1.7 0 0 Z " fill="#F4D424" transform="translate(599,57)"/>
<path d="M0 0 C0.66 0 1.32 0 2 0 C1.5188509 5.77378925 -0.18467181 9.95859836 -3 15 C-4.13583456 11.28272326 -3.66670026 9.52948291 -2 6 C-1.34 6 -0.68 6 0 6 C0 4.02 0 2.04 0 0 Z " fill="#0B4580" transform="translate(397,193)"/>
<path d="M0 0 C0.33 0 0.66 0 1 0 C1 1.65 1 3.3 1 5 C0.34 5 -0.32 5 -1 5 C-1.33 6.32 -1.66 7.64 -2 9 C-2.66 9 -3.32 9 -4 9 C-4.33 10.65 -4.66 12.3 -5 14 C-5.66 14 -6.32 14 -7 14 C-5.56032356 8.76481294 -3.18303389 4.36973991 0 0 Z " fill="#EAD638" transform="translate(504,123)"/>
<path d="M0 0 C0 3 0 3 -2.375 5.4375 C-3.24125 6.283125 -4.1075 7.12875 -5 8 C-6.29519995 10.16620544 -6.29519995 10.16620544 -7 12 C-8.32 11.67 -9.64 11.34 -11 11 C-7.37 7.37 -3.74 3.74 0 0 Z " fill="#F1D13C" transform="translate(528,97)"/>
<path d="M0 0 C0.66 0 1.32 0 2 0 C2.66 3.96 3.32 7.92 4 12 C0 10 0 10 -1 8 C-1.15789443 4.9210587 -0.98615995 2.95847985 0 0 Z " fill="#074A89" transform="translate(579,138)"/>
<path d="M0 0 C0 3.73838874 -0.88994615 4.32222769 -3.375 7 C-5.48740728 9.294961 -7.26130597 11.39195896 -9 14 C-9.66 13.67 -10.32 13.34 -11 13 C-9.73147606 11.39400651 -8.460089 9.79027425 -7.1875 8.1875 C-6.47980469 7.29417969 -5.77210938 6.40085937 -5.04296875 5.48046875 C-3.43588623 3.52923089 -1.82959577 1.73725024 0 0 Z " fill="#EED23F" transform="translate(516,109)"/>
<path d="M0 0 C0.66 0.33 1.32 0.66 2 1 C-0.99318562 4.33855319 -3.85756662 6.27398609 -8 8 C-9.32 8 -10.64 8 -12 8 C-12 7.34 -12 6.68 -12 6 C-11.30132813 5.73445312 -10.60265625 5.46890625 -9.8828125 5.1953125 C-8.97273437 4.84210938 -8.06265625 4.48890625 -7.125 4.125 C-6.22007812 3.77695313 -5.31515625 3.42890625 -4.3828125 3.0703125 C-1.87782993 2.11469105 -1.87782993 2.11469105 0 0 Z " fill="#0F4274" transform="translate(741,196)"/>
<path d="M0 0 C3.59309034 1.19769678 4.42093253 2.4676789 6.6875 5.4375 C7.31011719 6.24058594 7.93273437 7.04367188 8.57421875 7.87109375 C10 10 10 10 10 12 C9.34 12 8.68 12 8 12 C8 11.34 8 10.68 8 10 C7.34 10 6.68 10 6 10 C4.97388051 8.34928604 3.97691857 6.68029994 3 5 C2.443125 4.443125 1.88625 3.88625 1.3125 3.3125 C0.879375 2.879375 0.44625 2.44625 0 2 C0 1.34 0 0.68 0 0 Z " fill="#0A457B" transform="translate(261,123)"/>
<path d="M0 0 C0.99 0.33 1.98 0.66 3 1 C2.01 1.495 2.01 1.495 1 2 C-0.17486497 4.62616876 -1.09014862 7.27044585 -2 10 C-2.99 10 -3.98 10 -5 10 C-4.34 8.02 -3.68 6.04 -3 4 C-2.34 4 -1.68 4 -1 4 C-0.67 2.68 -0.34 1.36 0 0 Z " fill="#084474" transform="translate(272,200)"/>
<path d="M0 0 C-1.7015625 0.680625 -1.7015625 0.680625 -3.4375 1.375 C-7.04721692 2.57095806 -7.04721692 2.57095806 -8 5 C-11.0625 5.625 -11.0625 5.625 -14 6 C-14 5.34 -14 4.68 -14 4 C-12.23494565 3.13395466 -10.46271926 2.28251358 -8.6875 1.4375 C-7.70136719 0.96183594 -6.71523438 0.48617187 -5.69921875 -0.00390625 C-3 -1 -3 -1 0 0 Z " fill="#12457A" transform="translate(348,112)"/>
<path d="M0 0 C3.03852705 1.40976705 5.5939595 3.08870228 8.25 5.125 C8.95640625 5.66382813 9.6628125 6.20265625 10.390625 6.7578125 C10.92171875 7.16773438 11.4528125 7.57765625 12 8 C11.01 8.495 11.01 8.495 10 9 C8.70391053 8.06862408 7.41328368 7.1296434 6.125 6.1875 C5.40570313 5.66542969 4.68640625 5.14335937 3.9453125 4.60546875 C2 3 2 3 0 0 Z " fill="#0E4674" transform="translate(186,214)"/>
<path d="M0 0 C0.33 0.66 0.66 1.32 1 2 C2.32 2 3.64 2 5 2 C5 2.66 5 3.32 5 4 C1.625 4.625 1.625 4.625 -2 5 C-2.66 4.34 -3.32 3.68 -4 3 C-2.68 2.01 -1.36 1.02 0 0 Z " fill="#044693" transform="translate(223,202)"/>
<path d="M0 0 C0.99 0.33 1.98 0.66 3 1 C3 1.66 3 2.32 3 3 C3.99 3.33 4.98 3.66 6 4 C5.01 4.495 5.01 4.495 4 5 C3.01 4.67 2.02 4.34 1 4 C-0.89212737 3.77820215 -2.78884472 3.59385985 -4.6875 3.4375 C-5.68136719 3.35371094 -6.67523437 3.26992187 -7.69921875 3.18359375 C-8.83810547 3.09271484 -8.83810547 3.09271484 -10 3 C-10 2.67 -10 2.34 -10 2 C-9.04287109 1.90912109 -9.04287109 1.90912109 -8.06640625 1.81640625 C-6.82697266 1.69072266 -6.82697266 1.69072266 -5.5625 1.5625 C-4.73878906 1.48128906 -3.91507813 1.40007812 -3.06640625 1.31640625 C-1.01337975 1.21069185 -1.01337975 1.21069185 0 0 Z " fill="#05457D" transform="translate(761,177)"/>
<path d="M0 0 C1.5 1.375 1.5 1.375 3 3 C3 3.66 3 4.32 3 5 C3.99 5.33 4.98 5.66 6 6 C7.6875 8.5625 7.6875 8.5625 9 11 C5.78956118 9.61811547 3.95063635 8.07578097 1.75 5.375 C1.22921875 4.74335938 0.7084375 4.11171875 0.171875 3.4609375 C-0.21484375 2.97882813 -0.6015625 2.49671875 -1 2 C-0.67 1.34 -0.34 0.68 0 0 Z " fill="#0F467D" transform="translate(555,159)"/>
<path d="M0 0 C0 0.66 0 1.32 0 2 C-0.61875 2.2475 -1.2375 2.495 -1.875 2.75 C-4.35068687 4.20628639 -4.95125002 5.37812506 -6 8 C-7.32 7.67 -8.64 7.34 -10 7 C-3.18421053 0 -3.18421053 0 0 0 Z " fill="#315F60" transform="translate(570,117)"/>
<path d="M0 0 C0.66 0.99 1.32 1.98 2 3 C0.1875 6 0.1875 6 -2 9 C-2.99 9 -3.98 9 -5 9 C-5 8.34 -5 7.68 -5 7 C-4.34 7 -3.68 7 -3 7 C-3.33 6.01 -3.66 5.02 -4 4 C-3.01 4 -2.02 4 -1 4 C-0.67 2.68 -0.34 1.36 0 0 Z " fill="#074B88" transform="translate(642,204)"/>
<path d="M0 0 C3.13044524 2.0869635 3.45559583 2.81466639 5 6 C6.5412312 7.70921589 6.5412312 7.70921589 8 9 C5 9 5 9 2.3125 6.75 C0 4 0 4 0 0 Z " fill="#064079" transform="translate(578,196)"/>
<path d="M0 0 C3.98069267 2.87494471 6.43571997 5.82117329 9 10 C5.78956118 8.61811547 3.95063635 7.07578097 1.75 4.375 C1.22921875 3.74335938 0.7084375 3.11171875 0.171875 2.4609375 C-0.21484375 1.97882813 -0.6015625 1.49671875 -1 1 C-0.67 0.67 -0.34 0.34 0 0 Z " fill="#074784" transform="translate(754,199)"/>
<path d="M0 0 C0.33 0 0.66 0 1 0 C1 3.63 1 7.26 1 11 C0.34 11 -0.32 11 -1 11 C-1.33 8.69 -1.66 6.38 -2 4 C-1.34 4 -0.68 4 0 4 C0 2.68 0 1.36 0 0 Z " fill="#002EB8" transform="translate(765,169)"/>
<path d="M0 0 C1.0326802 2.78823655 1.04509293 3.8677274 0.0625 6.75 C-0.288125 7.4925 -0.63875 8.235 -1 9 C-1.99 9 -2.98 9 -4 9 C-2.94124926 5.59687262 -1.99097846 2.98646769 0 0 Z " fill="#0A4B85" transform="translate(669,134)"/>
<path d="M0 0 C0.721875 0.103125 1.44375 0.20625 2.1875 0.3125 C1.589375 0.745625 0.99125 1.17875 0.375 1.625 C-1.77850761 3.21185588 -1.77850761 3.21185588 -3.375 4.875 C-4.8125 6.3125 -4.8125 6.3125 -7.8125 8.3125 C-7.8125 5.3125 -7.8125 5.3125 -5.625 2.625 C-2.8125 0.3125 -2.8125 0.3125 0 0 Z " fill="#0B4276" transform="translate(337.8125,136.6875)"/>
<path d="M0 0 C0.33 0.66 0.66 1.32 1 2 C2.32 2.33 3.64 2.66 5 3 C4.67 6.63 4.34 10.26 4 14 C3.67 14 3.34 14 3 14 C2.96261719 13.39671875 2.92523437 12.7934375 2.88671875 12.171875 C2.43746659 6.00632228 2.43746659 6.00632228 -1 1 C-0.67 0.67 -0.34 0.34 0 0 Z " fill="#0C4983" transform="translate(611,186)"/>
<path d="M0 0 C0.99 0 1.98 0 3 0 C3.33 1.65 3.66 3.3 4 5 C3.34 5 2.68 5 2 5 C2 5.66 2 6.32 2 7 C1.34 7 0.68 7 0 7 C-0.93423645 3.98968256 -1.04449911 3.13349732 0 0 Z " fill="#F8D91D" transform="translate(520,61)"/>
<path d="M0 0 C3 1 3 1 4 3 C2.5629191 3.05422947 1.12524538 3.09289723 -0.3125 3.125 C-1.11300781 3.14820313 -1.91351562 3.17140625 -2.73828125 3.1953125 C-5 3 -5 3 -8 1 C-6.865625 1.020625 -5.73125 1.04125 -4.5625 1.0625 C-1.18424326 1.41577477 -1.18424326 1.41577477 0 0 Z " fill="#0A498B" transform="translate(592,178)"/>
<path d="M0 0 C0.33 0 0.66 0 1 0 C1.75 2.75 1.75 2.75 2 6 C0.0625 8.375 0.0625 8.375 -2 10 C-2.17942163 6.05272412 -2.09350689 3.4019487 0 0 Z " fill="#F0D22B" transform="translate(495,139)"/>
<path d="M0 0 C2.31 0.33 4.62 0.66 7 1 C5.25 3 5.25 3 3 5 C1.68 5 0.36 5 -1 5 C-0.67 3.35 -0.34 1.7 0 0 Z " fill="#0A4877" transform="translate(557,124)"/>
<path d="M0 0 C0.66 0.33 1.32 0.66 2 1 C0.35830472 3.02054804 -1.30911778 5.02043058 -3 7 C-3.33 7 -3.66 7 -4 7 C-4 5.35 -4 3.7 -4 2 C-2.125 0.9375 -2.125 0.9375 0 0 Z " fill="#F3D026" transform="translate(550,115)"/>
<path d="M0 0 C2 2 2 2 2 6 C0.02 6 -1.96 6 -4 6 C-4.33 5.34 -4.66 4.68 -5 4 C-4.0409375 3.8453125 -4.0409375 3.8453125 -3.0625 3.6875 C-2.381875 3.460625 -1.70125 3.23375 -1 3 C-0.67 2.01 -0.34 1.02 0 0 Z " fill="#F7D828" transform="translate(516,274)"/>
<path d="M0 0 C2.71323406 2.3432476 4.0465616 4.53295129 5 8 C4.01 9.485 4.01 9.485 3 11 C0 4.5 0 4.5 0 0 Z " fill="#07498B" transform="translate(271,135)"/>
<path d="M0 0 C0.66 1.32 1.32 2.64 2 4 C-1.13498292 5.85776765 -3.37471432 6.20140476 -7 6 C-4 4 -4 4 -2 4 C-1.34 2.68 -0.68 1.36 0 0 Z " fill="#0E4B7D" transform="translate(613,200)"/>
<path d="M0 0 C0 0.99 0 1.98 0 3 C-0.99 3.495 -0.99 3.495 -2 4 C-1.34 2.68 -0.68 1.36 0 0 Z M-5 4 C-4.01 4.33 -3.02 4.66 -2 5 C-2.66 5 -3.32 5 -4 5 C-4.66 6.65 -5.32 8.3 -6 10 C-6.66 9.34 -7.32 8.68 -8 8 C-7.01 6.68 -6.02 5.36 -5 4 Z " fill="#024C8F" transform="translate(457,118)"/>
<path d="M0 0 C2.97 0.99 5.94 1.98 9 3 C9 3.33 9 3.66 9 4 C7.35 4 5.7 4 4 4 C3.67 4.66 3.34 5.32 3 6 C2.67 5.34 2.34 4.68 2 4 C2.33 3.34 2.66 2.68 3 2 C2.01 1.67 1.02 1.34 0 1 C0 0.67 0 0.34 0 0 Z " fill="#024B92" transform="translate(208,200)"/>
<path d="M0 0 C1.32 0.33 2.64 0.66 4 1 C3.34 2.98 2.68 4.96 2 7 C1.34 7 0.68 7 0 7 C0 4.69 0 2.38 0 0 Z " fill="#074C8B" transform="translate(547,191)"/>
<path d="M0 0 C0.66 0.33 1.32 0.66 2 1 C1.01 3.64 0.02 6.28 -1 9 C-1.99 9 -2.98 9 -4 9 C-3.34 7.35 -2.68 5.7 -2 4 C-1.34 4 -0.68 4 0 4 C0 2.68 0 1.36 0 0 Z " fill="#F2D421" transform="translate(523,149)"/>
<path d="M0 0 C0.66 0 1.32 0 2 0 C1.71848913 1.31471568 1.42446661 2.62675767 1.125 3.9375 C0.96257813 4.66839844 0.80015625 5.39929688 0.6328125 6.15234375 C0 8 0 8 -2 9 C-1.125 1.125 -1.125 1.125 0 0 Z " fill="#0B4684" transform="translate(693,149)"/>
<path d="M0 0 C5.53846154 0.49230769 5.53846154 0.49230769 7.875 3.0625 C8.431875 4.0215625 8.431875 4.0215625 9 5 C5 5 5 5 3.375 3.625 C2.92125 3.08875 2.4675 2.5525 2 2 C1.34 1.34 0.68 0.68 0 0 Z " fill="#0C4882" transform="translate(252,118)"/>
<path d="M0 0 C0.66 0 1.32 0 2 0 C2 2.31 2 4.62 2 7 C0.68 6.34 -0.64 5.68 -2 5 C-1.125 1.125 -1.125 1.125 0 0 Z " fill="#E3D316" transform="translate(592,103)"/>
<path d="M0 0 C0.66 0.66 1.32 1.32 2 2 C1.030625 2.12375 0.06125 2.2475 -0.9375 2.375 C-1.948125 2.58125 -2.95875 2.7875 -4 3 C-4.33 3.66 -4.66 4.32 -5 5 C-5.99 4.34 -6.98 3.68 -8 3 C-5.38326241 1.59817629 -2.9628331 0.39504441 0 0 Z " fill="#024A8E" transform="translate(730,225)"/>
<path d="M0 0 C1.65 1.65 3.3 3.3 5 5 C4.67 5.99 4.34 6.98 4 8 C2.35 6.02 0.7 4.04 -1 2 C-0.67 1.34 -0.34 0.68 0 0 Z " fill="#0A4178" transform="translate(181,206)"/>
<path d="M0 0 C-5.625 3 -5.625 3 -9 3 C-8.67 2.01 -8.34 1.02 -8 0 C-5.04215769 -1.22393475 -3.00272755 -0.96516243 0 0 Z " fill="#07467E" transform="translate(237,203)"/>
<path d="M0 0 C0.33 0 0.66 0 1 0 C1.06058594 0.60328125 1.12117188 1.2065625 1.18359375 1.828125 C1.26738281 2.62734375 1.35117187 3.4265625 1.4375 4.25 C1.51871094 5.03890625 1.59992188 5.8278125 1.68359375 6.640625 C1.97634993 8.82364639 2.42064419 10.8773182 3 13 C2.01 12.34 1.02 11.68 0 11 C-0.29296875 8.3984375 -0.29296875 8.3984375 -0.1875 5.375 C-0.16042969 4.37210938 -0.13335937 3.36921875 -0.10546875 2.3359375 C-0.07066406 1.56507813 -0.03585937 0.79421875 0 0 Z " fill="#074D7E" transform="translate(329,186)"/>
<path d="M0 0 C0.66 0.33 1.32 0.66 2 1 C1.74438677 3.3431213 1.40729228 5.67843403 1 8 C0.01 8.495 0.01 8.495 -1 9 C-0.67 6.03 -0.34 3.06 0 0 Z " fill="#073E72" transform="translate(246,184)"/>
<path d="M0 0 C2.97 0.495 2.97 0.495 6 1 C6.33 2.32 6.66 3.64 7 5 C5.0625 4.6875 5.0625 4.6875 3 4 C2.67 3.01 2.34 2.02 2 1 C1.34 0.67 0.68 0.34 0 0 Z " fill="#0E4A8B" transform="translate(726,111)"/>
<path d="M0 0 C3.63 0.33 7.26 0.66 11 1 C10.34 1.66 9.68 2.32 9 3 C5.4292371 2.62413022 3.28657463 1.64328732 0 0 Z " fill="#F1D51B" transform="translate(533,80)"/>
<path d="M0 0 C1.32 0 2.64 0 4 0 C3.34 1.32 2.68 2.64 2 4 C1.01 4 0.02 4 -1 4 C-0.67 2.68 -0.34 1.36 0 0 Z " fill="#0013B0" transform="translate(746,187)"/>
<path d="M0 0 C0.66 0.66 1.32 1.32 2 2 C1.34 2.66 0.68 3.32 0 4 C0 2.68 0 1.36 0 0 Z " fill="#0019B2" transform="translate(332,224)"/>
<path d="M0 0 C0.99 1.485 0.99 1.485 2 3 C1.34 3 0.68 3 0 3 C0 2.01 0 1.02 0 0 Z " fill="#001F1F" transform="translate(329,116)"/>
<path d="" fill="#0000AA" transform="translate(0,0)"/>
<path d="M0 0 C0.66 0 1.32 0 2 0 C1.67 0.66 1.34 1.32 1 2 C0.67 1.34 0.34 0.68 0 0 Z " fill="#001C1C" transform="translate(271,132)"/>
<path d="" fill="#000000" transform="translate(0,0)"/>
<path d="" fill="#003F3F" transform="translate(0,0)"/>
<path d="" fill="#2A2A2A" transform="translate(0,0)"/>
<path d="" fill="#000000" transform="translate(0,0)"/>
<path d="M0 0 C2 1 2 1 2 1 Z " fill="#003F3F" transform="translate(381,115)"/>
<path d="" fill="#00007F" transform="translate(0,0)"/>
<path d="M0 0 C2 1 2 1 2 1 Z " fill="#000000" transform="translate(375,112)"/>
<path d="" fill="#2A5555" transform="translate(0,0)"/>
<path d="" fill="#00007F" transform="translate(0,0)"/>
<path d="" fill="#005555" transform="translate(0,0)"/>
<path d="" fill="#000000" transform="translate(0,0)"/>
<path d="" fill="#404040" transform="translate(0,0)"/>
<path d="" fill="#000000" transform="translate(0,0)"/>
<path d="" fill="#000000" transform="translate(0,0)"/>
<path d="" fill="#000000" transform="translate(0,0)"/>
<path d="" fill="#000000" transform="translate(0,0)"/>
<path d="" fill="#000000" transform="translate(0,0)"/>
<path d="" fill="#555555" transform="translate(0,0)"/>
<path d="" fill="#000000" transform="translate(0,0)"/>
<path d="" fill="#000000" transform="translate(0,0)"/>
<path d="" fill="#007F7F" transform="translate(0,0)"/>
<path d="" fill="#000000" transform="translate(0,0)"/>
<path d="" fill="#000000" transform="translate(0,0)"/>
<path d="" fill="#000000" transform="translate(0,0)"/>
<path d="" fill="#000000" transform="translate(0,0)"/>
<path d="" fill="#00007F" transform="translate(0,0)"/>
<path d="" fill="#000000" transform="translate(0,0)"/>
<path d="" fill="#000000" transform="translate(0,0)"/>
<path d="" fill="#007F7F" transform="translate(0,0)"/>
<path d="" fill="#000000" transform="translate(0,0)"/>
<path d="" fill="#000000" transform="translate(0,0)"/>
<path d="" fill="#007F7F" transform="translate(0,0)"/>
<path d="" fill="#000000" transform="translate(0,0)"/>
<path d="" fill="#000000" transform="translate(0,0)"/>
<path d="" fill="#000000" transform="translate(0,0)"/>
</svg>
